<?xml version="1.0" encoding="utf-8"?>
<!-- Generator: Adobe Illustrator 25.1.0, SVG Export Plug-In . SVG Version: 6.00 Build 0)  -->
<svg version="1.1" id="Ñëîé_1" xmlns="http://www.w3.org/2000/svg" xmlns:xlink="http://www.w3.org/1999/xlink" x="0px" y="0px"
	 viewBox="0 0 4000 2666.67" style="enable-background:new 0 0 4000 2666.67;" xml:space="preserve">
<style type="text/css">
	.st0{fill:#ECF2FA;}
	.st1{fill:#425FEC;}
	.st2{fill:#FFFFFF;}
	.st3{fill:#E6E6E6;}
	.st4{fill:#101C3A;}
	.st5{fill:#7109B5;}
	.st6{clip-path:url(#SVGID_8_);}
	.st7{fill:#EBF1FD;}
	.st8{fill:#390D9F;}
	.st9{fill:#FC721A;}
	.st10{opacity:0.3;}
	.st11{fill:#091022;}
	.st12{fill:#F8A3A2;}
	.st13{fill:#D17F80;}
	.st14{fill-rule:evenodd;clip-rule:evenodd;fill:#390D9F;}
</style>
<g>
	<g>
		<g>
			<g>
				<g>
					<g>
						<defs>
							<path id="SVGID_1_" d="M2774.38,1808.65c-692.53,145.81-484.77,518.07-946.82,605.74
								c-623.43,118.29-915.78-847.52-524.94-1443.58c312.33-476.31,851.13-626.78,1328.53-431.18
								C3305.44,815.94,3321,1693.56,2774.38,1808.65z"/>
						</defs>
						<clipPath id="SVGID_2_">
							<use xlink:href="#SVGID_1_"  style="overflow:visible;"/>
						</clipPath>
					</g>
				</g>
				<g>
					<g>
						<path class="st0" d="M2730.2,1858.11c-163.36,46.78-471.95,372.78-280.61,525.7
							C2640.92,2536.71,3212.46,1720.01,2730.2,1858.11z"/>
					</g>
					<g>
						<path class="st0" d="M2774.38,1808.65c-692.53,145.81-484.77,518.07-946.82,605.74
							c-623.43,118.29-915.78-847.52-524.94-1443.58c312.33-476.31,851.13-626.78,1328.53-431.18
							C3305.44,815.94,3321,1693.56,2774.38,1808.65z"/>
					</g>
					<g>
						<defs>
							<path id="SVGID_3_" d="M2774.38,1808.65c-692.53,145.81-484.77,518.07-946.82,605.74
								c-623.43,118.29-915.78-847.52-524.94-1443.58c312.33-476.31,851.13-626.78,1328.53-431.18
								C3305.44,815.94,3321,1693.56,2774.38,1808.65z"/>
						</defs>
						<clipPath id="SVGID_4_">
							<use xlink:href="#SVGID_3_"  style="overflow:visible;"/>
						</clipPath>
					</g>
				</g>
				<g>
					<g>
						<defs>
							<path id="SVGID_5_" d="M2774.38,1808.65c-692.53,145.81-484.77,518.07-946.82,605.74
								c-623.43,118.29-915.78-847.52-524.94-1443.58c312.33-476.31,851.13-626.78,1328.53-431.18
								C3305.44,815.94,3321,1693.56,2774.38,1808.65z"/>
						</defs>
						<clipPath id="SVGID_6_">
							<use xlink:href="#SVGID_5_"  style="overflow:visible;"/>
						</clipPath>
					</g>
				</g>
			</g>
		</g>
		<g>
			<g>
				<path class="st1" d="M3315.81,1442.93c-162.73,305.47-432.42,535.68-754.48,643.64c-92.53-109.49-185.08-218.93-277.66-328.42
					c214.75-73.88,406.48-201.71,559.28-369.82C2853.12,1383.52,3164.06,1222.14,3315.81,1442.93z"/>
				<path class="st2" d="M2887.97,1399.03c-146.05,159.36-354.28,297.06-553.11,372.95c78.63,93,155.42,194.21,234.02,287.23
					c301.55-106.18,550.48-312.8,707.79-598.11c-51.88-65.01-134.73-73.26-228.44-71.28c0,0-0.01-0.01-0.03,0.01
					C2950.83,1417.15,2915.33,1385.84,2887.97,1399.03z M2898.94,1404.87c25.81-11.2,62.12,14.94,154.82-13.62l0.01,0.01
					c75.13,19.51,159.13,10.08,207.03,64.69c-153.53,273.24-395.41,471.89-685.51,576.61c-33.81-40-67.56-79.44-101.36-119.48
					c-37.97-44.96-76-90.81-113.98-135.72C2547.03,1701.5,2750.61,1565.98,2898.94,1404.87z"/>
				<g>
					<g>
						<path class="st2" d="M2747.46,1721.98c-37.77-64.77-32.04-140.31,13.61-179.62c25.33-21.78,59.34-29.67,95.81-22.21
							c36.73,7.52,71.5,29.69,97.88,62.42c6.24,7.73,11.91,15.96,16.87,24.46c37.77,64.78,32.05,140.31-13.6,179.58
							c-25.33,21.8-59.35,29.7-95.81,22.25c-36.74-7.51-71.5-29.67-97.89-62.42C2758.09,1738.71,2752.42,1730.48,2747.46,1721.98z"
							/>
					</g>
					<g>
						<path class="st1" d="M2852.25,1585.14l5.85,16.44c-10.29,1.14-22.7,5.74-32.96,14.59c-12.98,11.17-15.53,26.5-6.83,37.29
							c8.39,10.4,20.72,10.7,38.83,4.7c24.79-8.5,43.37-9.73,56.63,6.74c12.65,15.7,11.5,36.9-3.09,54.26l15.41,19.11l-11.36,9.79
							l-14.8-18.35c-11.31,9.08-21.24,12.51-29.16,13.85l-5.48-16.43c5.7-1.05,16.54-3.33,28.24-13.41
							c14.12-12.15,12.4-25.42,6.3-33c-7.92-9.84-18.65-8.94-40.1-2.02c-25.27,8.3-42.71,6.63-56.29-10.2
							c-12.08-14.94-13.29-37.61,2.98-57.06l-15.87-19.69l11.55-9.93l15.41,19.11C2828.28,1591.99,2842.04,1585.9,2852.25,1585.14z"
							/>
					</g>
				</g>
				<path class="st2" d="M3076.02,1447.13c16,19.84,13.38,49.36-5.82,65.87c-19.22,16.54-47.77,13.86-63.78-5.99
					c-16-19.84-13.4-49.34,5.81-65.88C3031.46,1424.59,3060.01,1427.27,3076.02,1447.13z"/>
				<path class="st3" d="M2687.27,1781.68c16.01,19.85,13.41,49.34-5.81,65.9c-19.21,16.52-47.75,13.83-63.77-6.02
					c-16.01-19.86-13.42-49.36,5.81-65.89C2642.71,1759.14,2671.26,1761.82,2687.27,1781.68z"/>
				<path class="st3" d="M2617.94,1963.71c16.04,19.83,13.41,49.34-5.77,65.88c-19.23,16.53-47.78,13.84-63.79-6
					c-15.99-19.87-13.41-49.38,5.8-65.89C2573.41,1941.15,2601.97,1943.85,2617.94,1963.71z"/>
				<path class="st2" d="M3251.78,1418.98c16,19.84,13.41,49.34-5.81,65.9c-19.21,16.52-47.75,13.83-63.77-6.03
					c-16.02-19.86-13.42-49.35,5.81-65.88C3207.21,1396.45,3235.76,1399.13,3251.78,1418.98z"/>
				<path class="st3" d="M2453.18,1754.33c18.95,23.46,15.87,58.35-6.85,77.94c-22.73,19.54-52.29,8.31-71.22-15.18
					c-18.94-23.48-26.35-43.8,2.41-53.33C2405.67,1754.4,2434.28,1730.84,2453.18,1754.33z"/>
				<path class="st1" d="M3298.52,1420.48c0,0-219.93-25.77-273.3,57.79c0,0-60.55-139.28-182.26-89.93
					C2886.35,1361.89,3166.5,1245.02,3298.52,1420.48z"/>
				<g>
					<path class="st4" d="M3265.08,1384.58c-3.91-0.48-152.63-13.47-231.84,41.01c-23.21-42.06-65.73-70.48-115.78-69.27
						C3010.42,1324.7,3163.75,1296.89,3265.08,1384.58z"/>
				</g>
			</g>
			<g>
				<path class="st1" d="M2795.89,1970.45c-5.27,10.21-157.93,333.25-408.16,252.63c-49.77-344.86,29.69-696.83,222.52-984.33
					c137.84,29.14,275.64,58.26,413.53,87.37C2896.3,1519.36,2818.79,1741.07,2795.89,1970.45z"/>
				<path class="st2" d="M2974.95,1347.17c-117.1-24.75-237.56-57.17-354.63-81.94c-177.55,273.25-254.36,593.46-212.1,918.91
					c79.39,19.21,150.16-26.11,223.52-86.35h0.03c61.39-82.71,108-80.02,122.03-107.66
					C2776.49,1771.93,2861.33,1532.01,2974.95,1347.17z M2951.85,1358.6c-104.29,177.46-186.73,412.73-210.21,633.74
					c-13.95,25.07-58.16,27-115.14,107.77l-0.03,0.01c-71.19,31.51-132.47,91.6-202.62,78.16
					c-38.17-313.48,37.66-622.92,206.99-887.85c50.36,10.63,100.36,20.88,150.72,31.56
					C2838.15,1333.98,2895.27,1346.65,2951.85,1358.6z"/>
				<g>
					<g>
						<path class="st2" d="M2485.21,1809.59c-15.7-26.91-20.72-55.92-14.52-83.87c7.36-33.2,29.79-60.79,63.16-77.7
							c33.63-17.03,74.29-21.18,114.49-11.67c46.63,11.05,85.91,38.89,107.77,76.37c15.7,26.94,20.72,55.96,14.52,83.95
							c-7.35,33.18-29.77,60.75-63.15,77.65c-33.63,17.03-74.29,21.16-114.5,11.65C2546.35,1874.93,2507.07,1847.09,2485.21,1809.59
							z"/>
					</g>
					<g>
						<path class="st1" d="M2579.31,1715.03c-3.91,4.37-11.21,13-14.62,28.35c-4.09,18.52,5.05,27.98,14.34,30.19
							c12.09,2.86,20.12-4.58,33.11-23.5c15.23-22.42,30.1-32.03,50.77-27.11c18.36,4.34,32.64,21.56,31.11,47.23l24.15,5.74
							l-3.34,15.13l-23.48-5.56c-3.32,13.85-10.68,27.27-18.35,34.3l-14.31-9.44c7.49-7.33,14.67-18.76,17.65-32.21
							c3.78-17.04-3.18-30.81-16.44-33.96c-12.78-3.01-22.77,4.47-33.66,20.61c-14.75,22.26-28.77,34.86-48.97,30.07
							c-19.29-4.56-30.8-22.17-29.38-45.09l-23.5-5.55l3.31-14.9l22.57,5.33c3.66-14.3,9.54-23.24,15.04-29.25L2579.31,1715.03z"/>
					</g>
				</g>
				<path class="st3" d="M2630.26,2034.46c-5.59,25.18-29.86,40.9-54.25,35.14c-24.36-5.77-39.6-30.87-34.02-56.04
					s29.86-40.94,54.23-35.17C2620.62,1984.14,2635.83,2009.26,2630.26,2034.46z"/>
				<path class="st2" d="M2743.21,1524.93c-5.58,25.19-29.87,40.93-54.25,35.14c-24.39-5.74-39.63-30.84-34.05-56.02
					c5.59-25.18,29.88-40.92,54.25-35.15C2733.57,1474.67,2748.8,1499.76,2743.21,1524.93z"/>
				<path class="st2" d="M2691.54,1336.76c-5.55,25.18-29.87,40.94-54.25,35.15c-24.36-5.76-39.6-30.85-34.02-56.04
					c5.59-25.17,29.86-40.9,54.26-35.14C2681.89,1286.51,2697.12,1311.59,2691.54,1336.76z"/>
				<path class="st3" d="M2506.98,2166.88c-5.59,25.19-29.88,40.93-54.26,35.15c-24.38-5.75-39.62-30.84-34.04-56.03
					c5.58-25.19,29.88-40.92,54.24-35.16C2497.32,2116.61,2512.57,2141.71,2506.98,2166.88z"/>
				<path class="st2" d="M2945.85,1380.42c-16.9,25.07-25.82,61.7-54.67,54.88c-28.82-6.82-46.82-36.5-40.26-66.29
					c6.63-29.78,36.71-39.34,65.55-32.53C2945.33,1343.32,2963.12,1354.83,2945.85,1380.42z"/>
				<path class="st5" d="M2795.89,1970.44c-19.02,48.2-173.29,316.59-381.23,259.67c0,0,190.04-117.19,183.48-217.08
					C2598.14,2013.03,2728.01,2085.91,2795.89,1970.44z"/>
				<path class="st4" d="M2755.41,2042.58c-55.4,83.32-161.04,201.46-293.11,195.17c3.42-2.1,129.34-84.88,160.38-177.8
					C2665.81,2078.88,2716.29,2074.86,2755.41,2042.58z"/>
			</g>
		</g>
		<g>
			<defs>
				<rect id="SVGID_7_" x="1754.77" y="929.37" width="970.93" height="1494.95"/>
			</defs>
			<clipPath id="SVGID_8_">
				<use xlink:href="#SVGID_7_"  style="overflow:visible;"/>
			</clipPath>
			<g class="st6">
				<g>
					<path class="st4" d="M2704.36,1078.99v1590.45c0,66.67-52.51,120.95-117.11,120.95h-307.94v-0.24h-388.58
						c-25.34-1.58-48.57-11.46-67.02-27.11c-26.31-22.21-43.07-55.92-43.07-93.6V1078.99c0-66.67,52.58-120.95,117.11-120.95h689.49
						C2651.86,958.04,2704.36,1012.32,2704.36,1078.99z"/>
				</g>
				<g>
					<path class="st7" d="M2678.35,1078.99v1590.46c0,51.93-40.77,94.05-91.09,94.05h-689.51c-50.27,0-91.04-42.12-91.04-94.05
						V1078.99c0-51.94,40.77-94.05,91.04-94.05h689.51C2637.58,984.93,2678.35,1027.05,2678.35,1078.99z"/>
				</g>
				<g>
					<path class="st4" d="M2351.1,1000.6h-214.66c-4.79,0-8.67,4.01-8.67,8.96c0,4.95,3.89,8.96,8.67,8.96h214.66
						c4.79,0,8.68-4.01,8.68-8.96C2359.78,1004.62,2355.89,1000.6,2351.1,1000.6z"/>
				</g>
				<g>
					<g>
						<g>
							<polygon class="st4" points="1889.7,1101.98 1886.06,1098.22 1914.82,1068.5 1918.46,1072.26 							"/>
						</g>
					</g>
					<g>
						<g>
							<polygon class="st4" points="1914.82,1101.98 1886.06,1072.26 1889.7,1068.5 1918.46,1098.22 							"/>
						</g>
					</g>
				</g>
				<g>
					<g>
						<rect x="2550.46" y="1092.38" class="st4" width="46.14" height="5.32"/>
					</g>
				</g>
				<g>
					<path class="st8" d="M2445.61,2020.75h-377.86c-11.14,0-20.18-9.04-20.18-20.18v-109.08c0-11.15,9.04-20.18,20.18-20.18h377.86
						c11.14,0,20.18,9.03,20.18,20.18v109.08C2465.78,2011.72,2456.75,2020.75,2445.61,2020.75z"/>
					<g>
						<path class="st2" d="M2136.77,1961.43l12.46-1.25c0.75,4.32,2.27,7.49,4.56,9.52c2.29,2.03,5.38,3.04,9.28,3.04
							c4.12,0,7.23-0.9,9.32-2.7c2.09-1.8,3.14-3.91,3.14-6.33c0-1.54-0.44-2.87-1.32-3.95s-2.42-2.04-4.61-2.84
							c-1.5-0.54-4.92-1.49-10.25-2.86c-6.87-1.76-11.68-3.91-14.45-6.48c-3.89-3.61-5.84-8-5.84-13.19c0-3.33,0.91-6.46,2.75-9.37
							c1.83-2.9,4.47-5.12,7.92-6.63c3.45-1.52,7.61-2.28,12.49-2.28c7.96,0,13.95,1.8,17.97,5.4c4.02,3.61,6.14,8.42,6.34,14.44
							l-12.81,0.59c-0.55-3.37-1.72-5.79-3.53-7.27c-1.8-1.48-4.51-2.21-8.11-2.21c-3.72,0-6.64,0.79-8.74,2.37
							c-1.35,1.02-2.03,2.37-2.03,4.07c0,1.55,0.63,2.87,1.9,3.98c1.61,1.4,5.54,2.86,11.77,4.38c6.23,1.52,10.84,3.09,13.83,4.71
							c2.98,1.63,5.32,3.85,7,6.66c1.69,2.82,2.53,6.3,2.53,10.44c0,3.75-1.01,7.27-3.03,10.55c-2.02,3.27-4.88,5.72-8.57,7.31
							c-3.69,1.59-8.29,2.39-13.81,2.39c-8.01,0-14.17-1.91-18.48-5.74C2140.17,1974.34,2137.6,1968.77,2136.77,1961.43z"/>
						<path class="st2" d="M2199.12,1982.76v-65.54h47.04v11.09h-34.23v14.53h31.85v11.04h-31.85v17.83h35.44v11.05H2199.12z"/>
						<path class="st2" d="M2258.37,1982.76v-65.54h12.46l25.96,43.76v-43.76h11.9v65.54h-12.85l-25.58-42.74v42.74H2258.37z"/>
						<path class="st2" d="M2322.19,1917.22h23.41c5.28,0,9.3,0.42,12.08,1.26c3.72,1.13,6.91,3.14,9.56,6.03
							c2.65,2.89,4.67,6.43,6.05,10.62c1.39,4.19,2.08,9.36,2.08,15.49c0,5.4-0.64,10.05-1.95,13.95c-1.59,4.77-3.85,8.63-6.8,11.58
							c-2.22,2.23-5.22,3.98-9,5.23c-2.83,0.93-6.61,1.39-11.33,1.39h-24.11V1917.22z M2335,1928.31v43.41h9.56
							c3.57,0,6.16-0.2,7.74-0.62c2.08-0.53,3.8-1.44,5.18-2.73c1.37-1.28,2.49-3.39,3.35-6.32c0.87-2.94,1.3-6.94,1.3-12
							s-0.43-8.95-1.3-11.67c-0.87-2.71-2.08-4.82-3.63-6.35c-1.56-1.52-3.54-2.54-5.93-3.09c-1.79-0.42-5.29-0.62-10.51-0.62H2335z
							"/>
					</g>
				</g>
				<g>
					<g>
						<g>
							<polygon class="st8" points="2454.83,1624.23 2414.15,1624.23 2420.74,1348.04 2447.64,1348 							"/>
						</g>
						<g>
							<polygon class="st2" points="2469.74,1652.84 2399.25,1652.84 2401.26,1648.54 2467.72,1648.54 							"/>
						</g>
						<g>
							<rect x="2412.19" y="1335.55" class="st2" width="43.93" height="0.03"/>
						</g>
						<g>
							<rect x="2396.3" y="1648.54" class="st8" width="76.39" height="49.01"/>
						</g>
					</g>
					<g>
						<g>
							<path class="st1" d="M2198.44,1247.07h116.45c14.28,0,25.84,11.98,25.84,26.7c0,14.75-11.56,26.73-25.84,26.73h-116.45
								c-14.25,0-25.84-11.98-25.84-26.73C2172.6,1259.05,2184.2,1247.07,2198.44,1247.07z"/>
							<path class="st8" d="M2256.69,1174.72l-286.54,135.02v25.84h573.04v-24.85L2256.69,1174.72z M2024.65,1312.82l232.04-109.76
								l232,109.76H2024.65z"/>
						</g>
						<g>
							<path class="st2" d="M2340.74,1273.77c0,14.75-11.56,26.73-25.84,26.73h-116.45c-14.25,0-25.84-11.98-25.84-26.73
								c0-14.72,11.59-26.7,25.84-26.7h116.45C2329.17,1247.07,2340.74,1259.05,2340.74,1273.77z"/>
						</g>
						<path class="st8" d="M2340.74,1273.77c0,14.75-11.56,26.73-25.84,26.73h-116.45c-14.25,0-25.84-11.98-25.84-26.73
							c0-14.72,11.59-26.7,25.84-26.7h116.45C2329.17,1247.07,2340.74,1259.05,2340.74,1273.77z"/>
					</g>
					<g>
						<g>
							<polygon class="st8" points="2275.97,1624.23 2235.29,1624.23 2241.88,1348.04 2268.74,1348 							"/>
						</g>
						<g>
							<polygon class="st2" points="2290.84,1652.84 2220.38,1652.84 2222.4,1648.54 2288.82,1648.54 							"/>
						</g>
						<g>
							<rect x="2233.33" y="1335.55" class="st2" width="43.9" height="0.03"/>
						</g>
						<g>
							<rect x="2217.43" y="1648.54" class="st8" width="76.36" height="49.01"/>
						</g>
					</g>
					<g>
						<g>
							<polygon class="st8" points="2095.91,1624.23 2055.23,1624.23 2061.82,1348.04 2088.72,1348 							"/>
						</g>
						<g>
							<polygon class="st2" points="2110.81,1652.84 2040.32,1652.84 2042.34,1648.54 2108.8,1648.54 							"/>
						</g>
						<g>
							<rect x="2053.27" y="1335.55" class="st2" width="43.93" height="0.03"/>
						</g>
						<g>
							<rect x="2037.4" y="1648.54" class="st8" width="76.36" height="49.01"/>
						</g>
					</g>
					<g>
						<path class="st2" d="M2213.7,1261.99h8.97c1.77,0,3.1,0.08,3.97,0.23c0.87,0.15,1.65,0.48,2.34,0.96
							c0.69,0.49,1.26,1.13,1.73,1.93c0.46,0.81,0.69,1.71,0.69,2.71c0,1.09-0.29,2.08-0.85,2.99c-0.57,0.9-1.33,1.58-2.3,2.04
							c1.37,0.41,2.42,1.11,3.16,2.1c0.73,0.99,1.1,2.15,1.1,3.5c0,1.05-0.24,2.08-0.71,3.08c-0.48,0.99-1.13,1.79-1.95,2.39
							c-0.82,0.59-1.84,0.96-3.04,1.1c-0.75,0.08-2.57,0.14-5.46,0.16h-7.64V1261.99z M2218.23,1265.84v5.36h2.97
							c1.76,0,2.86-0.02,3.29-0.08c0.78-0.09,1.39-0.37,1.83-0.83c0.44-0.46,0.67-1.06,0.67-1.81c0-0.72-0.2-1.3-0.57-1.75
							c-0.38-0.45-0.96-0.72-1.71-0.81c-0.45-0.06-1.74-0.08-3.87-0.08H2218.23z M2218.23,1275.06v6.19h4.19
							c1.63,0,2.67-0.05,3.11-0.14c0.68-0.13,1.22-0.43,1.65-0.92c0.42-0.49,0.64-1.15,0.64-1.97c0-0.7-0.17-1.29-0.5-1.77
							c-0.33-0.49-0.79-0.84-1.41-1.06c-0.62-0.22-1.96-0.33-4.02-0.33H2218.23z"/>
						<path class="st2" d="M2256.55,1285.16h-4.93l-1.96-5.26h-8.96l-1.86,5.26h-4.8l8.74-23.18h4.79L2256.55,1285.16z
							 M2248.21,1275.99l-3.09-8.6l-3.03,8.6H2248.21z"/>
						<path class="st2" d="M2259,1285.16v-23.18h4.41l9.18,15.48v-15.48h4.21v23.18h-4.55l-9.04-15.11v15.11H2259z"/>
						<path class="st2" d="M2281.65,1285.16v-23.18h4.53v10.29l9.15-10.29h6.09l-8.45,9.03l8.91,14.15h-5.86l-6.17-10.88l-3.67,3.87
							v7H2281.65z"/>
					</g>
				</g>
				<g>
					<g>
						<g>
							<g>
								<path class="st4" d="M2080.39,2345.04c31.46-10.42,54.5-46.98,54.14-90.29c-0.36-43-23.7-78.95-55.01-89.09l-0.02-3.03
									l-18.52,0.17c-40.18,0.36-72.41,42.12-71.98,93.27c0.43,51.15,33.36,92.32,73.54,91.96l17.85,0.31L2080.39,2345.04z"/>
								<g>
									<g>
										<path class="st4" d="M2081.04,2349.01l-18.5-0.33c-0.17,0.01-0.35,0.01-0.52,0.01c-40.22,0-73.21-41.41-73.64-92.61
											c-0.21-24.89,7.21-48.36,20.9-66.09c13.71-17.77,32.08-27.66,51.7-27.83l19.16-0.18l0.02,3.22
											c32.06,10.64,54.65,47.39,55.01,89.56c0.36,42.57-21.88,79.81-54.14,90.77L2081.04,2349.01z M2062.55,2347.38l17.23,0.3
											l-0.02-3.11l0.44-0.14c31.97-10.59,54.06-47.46,53.7-89.66c-0.35-41.8-22.79-78.18-54.56-88.47l-0.44-0.14l-0.01-2.85
											l-17.89,0.16c-19.24,0.18-37.25,9.88-50.73,27.34c-13.51,17.5-20.83,40.68-20.62,65.27
											c0.42,50.48,32.85,91.31,72.39,91.31C2062.21,2347.38,2062.37,2347.38,2062.55,2347.38z"/>
									</g>
								</g>
							</g>
						</g>
						<g>
							<path class="st2" d="M2153.05,2254.6c0.44,51.15-32.46,93.39-72.64,93.75c-40.18,0.36-72.44-41.29-72.88-92.44
								c-0.43-51.15,31.8-92.9,71.98-93.27C2119.69,2162.27,2152.62,2203.45,2153.05,2254.6z"/>
						</g>
						<g>
							<g>
								<path class="st9" d="M2140.05,2254.75c0.35,42.01-26.66,76.71-59.66,77c-33.01,0.29-59.51-33.91-59.86-75.92
									c-0.35-42.01,26.12-76.31,59.12-76.61S2139.7,2212.75,2140.05,2254.75z"/>
								<g>
									<g>
										<path class="st4" d="M2079.96,2332.4c-15.95,0-30.94-7.92-42.25-22.33c-11.32-14.44-17.65-33.71-17.82-54.23
											c-0.36-42.3,26.45-76.97,59.75-77.27c0.14,0,0.29,0,0.44,0c15.99,0,31.07,7.85,42.49,22.14
											c11.5,14.38,17.94,33.57,18.11,54.04c0.17,20.45-6.03,39.83-17.46,54.56c-11.45,14.75-26.66,22.95-42.83,23.09
											C2080.25,2332.4,2080.1,2332.4,2079.96,2332.4z M2080.08,2179.88c-0.15,0-0.29,0-0.43,0
											c-32.6,0.29-58.85,34.36-58.5,75.94c0.17,20.24,6.4,39.21,17.54,53.42c11.06,14.11,25.7,21.86,41.26,21.86
											c0.14,0,0.28,0,0.42,0c15.78-0.14,30.64-8.17,41.85-22.61c11.26-14.5,17.36-33.58,17.19-53.73
											c-0.17-20.16-6.5-39.07-17.81-53.22C2110.42,2187.56,2095.69,2179.88,2080.08,2179.88z"/>
									</g>
								</g>
							</g>
						</g>
						<g>
							<g>
								<g>
									<path class="st2" d="M2105.3,2263.48c-0.58-1.53-1.32-2.92-2.3-4.18c-0.98-1.22-2.11-2.34-3.38-3.33
										c-1.29-0.96-2.67-1.86-4.17-2.68c-1.48-0.79-3.04-1.56-4.67-2.23c-1.61-0.68-3.25-1.37-4.92-2.03l-0.71-23.33
										c2.64,0.41,4.83,1.39,6.58,2.94c1.71,1.59,3.12,3.8,4.17,6.61l8.08-0.27c-0.55-2.81-1.43-5.24-2.66-7.34
										c-1.19-2.1-2.67-3.85-4.36-5.23c-1.69-1.42-3.57-2.51-5.62-3.3c-2.06-0.79-4.2-1.32-6.45-1.56l-0.24-7.48l-8.18,0.27
										l0.23,7.47c-2.38,0.47-4.62,1.23-6.73,2.32c-2.09,1.09-3.91,2.43-5.47,4.04c-1.53,1.61-2.75,3.41-3.62,5.46
										c-0.87,2.05-1.27,4.26-1.19,6.63c0.08,2.67,0.64,4.99,1.69,6.9c1.03,1.94,2.4,3.63,4.09,5.1c1.69,1.45,3.62,2.73,5.75,3.8
										c2.12,1.09,4.34,2.1,6.63,3.05l0.79,25.35c-1.38-0.41-2.64-1.04-3.83-1.88c-1.16-0.88-2.22-1.91-3.14-3.14
										c-0.92-1.23-1.71-2.62-2.38-4.15c-0.66-1.56-1.18-3.2-1.53-4.94l-8.59,0.27c0.53,2.92,1.4,5.62,2.59,8.13
										c1.22,2.51,2.7,4.75,4.41,6.69c1.74,1.93,3.67,3.55,5.84,4.83s4.47,2.18,6.89,2.64l0.37,11.87l8.19-0.27l-0.34-11.68
										c2.38-0.36,4.75-1.01,7.08-1.99c2.32-0.96,4.41-2.29,6.24-3.93c1.8-1.69,3.25-3.68,4.33-6.05c1.08-2.35,1.56-5.1,1.45-8.27
										C2106.17,2266.7,2105.85,2265.01,2105.3,2263.48z M2073.84,2244.08c-1.13-0.68-2.11-1.45-2.93-2.29
										c-0.85-0.81-1.51-1.75-1.99-2.75c-0.48-0.98-0.74-2.1-0.76-3.35c-0.08-2.27,0.63-4.28,2.16-6.04
										c1.51-1.75,3.7-2.94,6.63-3.55l0.63,19.98C2076.22,2245.44,2074.98,2244.79,2073.84,2244.08z M2097.11,2273.11
										c-0.48,1.28-1.18,2.43-2.14,3.46c-0.95,1.02-2.12,1.91-3.49,2.65c-1.35,0.74-2.9,1.26-4.62,1.53l-0.71-22.49
										c1.5,0.63,2.93,1.33,4.3,2.08c1.37,0.76,2.59,1.58,3.67,2.45c1.08,0.9,1.95,1.86,2.59,2.89c0.66,1.04,1,2.16,1.03,3.41
										C2097.8,2270.49,2097.59,2271.85,2097.11,2273.11z"/>
								</g>
							</g>
						</g>
					</g>
				</g>
				<polygon class="st8" points="2316.68,2255.49 2261.73,2206.71 2261.73,2230.45 2185.12,2230.45 2185.12,2280.53 
					2261.73,2280.53 2261.73,2304.28 				"/>
				<path class="st8" d="M2501.37,2255.49c0,47.4-37.19,85.83-83.08,85.83c-45.89,0-83.08-38.43-83.08-85.83
					c0-47.4,37.19-85.83,83.08-85.83C2464.17,2169.66,2501.37,2208.09,2501.37,2255.49z"/>
				<g>
					<g>
						<path class="st2" d="M2448.58,2227.68c0.14,17.47-12.72,31.69-28.74,31.76c-16.02,0.07-29.12-14.06-29.26-31.53
							c-0.14-17.48,12.72-31.7,28.74-31.76C2435.33,2196.08,2448.44,2210.2,2448.58,2227.68z"/>
					</g>
					<g>
						<path class="st2" d="M2381.38,2299.75c-0.2-23.43,17.21-25.07,38.69-25.15c21.48-0.08,38.9,1.41,39.09,24.84L2381.38,2299.75z
							"/>
					</g>
				</g>
			</g>
		</g>
		<g class="st10">
			<path class="st11" d="M2662.43,1824.9v599.42h-263.35l-0.07-17.35c0-4.73,3.68-8.56,8.25-8.56l28.66-0.1
				c-3.01-1.27-5.14-4.32-5.17-7.91l-0.06-30.94c-0.03-4.72,3.68-8.59,8.25-8.59h-22.03c-4.6,0-8.31-3.8-8.31-8.52l-0.1-30.98
				c0-3.8,2.38-6.99,5.7-8.11l-21.83,0.07c-4.58,0.03-8.29-3.8-8.32-8.52l-0.07-30.98c-0.03-4.72,3.68-8.55,8.25-8.55l44.96-0.18
				c-3.65-0.85-6.4-4.21-6.43-8.28l-0.1-30.97c0-4.04,2.71-7.43,6.36-8.32c-3.57-0.92-6.23-4.25-6.26-8.25l-0.1-30.94
				c0-4.76,3.71-8.59,8.28-8.59l35.88-0.1c-4.04-0.59-7.15-4.11-7.15-8.42l-0.1-30.98c-0.03-4.55,3.41-8.25,7.79-8.52l-45.98,0.14
				c-4.58,0-8.29-3.8-8.32-8.52l-0.06-30.98c-0.03-4.72,3.68-8.55,8.25-8.59l23.63-0.07c-3.78-0.75-6.66-4.21-6.66-8.35l-0.1-30.98
				c-0.03-4.45,3.25-8.04,7.45-8.49l-41.58-0.14c-4.57,0-8.25-3.83-8.25-8.55l0.1-30.97c0-4.01,2.68-7.32,6.26-8.25
				c-3.65-0.89-6.36-4.28-6.36-8.32l0.1-30.97c0-4.73,3.71-8.56,8.31-8.52h20.77c-4.57-0.04-8.25-3.87-8.25-8.59l0.1-30.98
				c0-4.72,3.71-8.52,8.28-8.52l13.09,0.03c-3.88-0.72-6.83-4.21-6.83-8.42l0.1-30.94c0.03-4.72,3.74-8.55,8.31-8.55L2662.43,1824.9
				z"/>
		</g>
		<g class="st10">
			<path class="st11" d="M2104.45,2041.85c-2.36-62.02-6.52-129.78-11.17-191.66c-2.51-33.57-5.16-65.37-7.73-93.57
				c4.01-18.58,5-38.19,4.2-59.07c-0.22-6.74-0.66-13.62-1.24-20.64c-0.64-7.73-2.87-15.88-6.37-24.06
				c-0.61-1.44-1.24-2.87-1.94-4.31c-3.27-6.85-7.42-13.69-12.19-20.3c-0.96-1.33-1.97-2.67-2.99-4
				c-5.95-7.66-12.76-14.99-20.14-21.59c-17.29-15.44-37.62-26.93-57.06-30.01c3.02-2.6,5.66-5.1,7.64-7.4l3.09-14.95l8.5,5.44
				c22.53-16.91,6.58-115.72-24.25-161.65c-20.34-30.25-77.78-82.27-130.16-30.49c-16.83-7.43-32.11-11.46-46.94-12.77
				c-8.43-0.72-16.74-0.58-25.05,0.35v198.92c6.94,9.3,15.21,16.12,25.05,17.93c2.89,0.55,5.95,0.65,9.13,0.24l6.27,19.71l0.64,2.09
				c-5.12,1.88-10.5,4.14-16.04,6.91c-8.18,4-16.71,9.1-25.05,15.47v811.89h259.99c2.36-3.46,4.68-7.08,6.91-10.88
				c11.46-0.37,23.71-1.85,36.98-4.62c0,0,9.07-32.69,15.18-86.39v-0.03c2.8-24.61,4.99-53.57,5.44-85.87
				c0.16-11.67,0.2-23.58,0.32-35.87c0.07-10.27,0.2-20.85,0.48-31.8C2106.96,2133.4,2106.23,2089.32,2104.45,2041.85z
				 M1875.77,1495.82c0.06-0.92,0.03-1.95-0.03-3.05l2.42,10.58L1875.77,1495.82z M1928.88,1565.54
				c-12.19-0.41-23.42,0.41-33.67,1.91c0.76-1.03,1.53-2.02,2.29-3.08l-15.27-48.19c0.32-0.65,0.61-1.33,0.86-2.16
				c1.24-3.97,3.47-21.67,4.07-43.57c0.22-1.06,0.41-2.19,0.48-3.32c0.13-1.85,0-3.7-0.32-5.44c0.13-20.81-1.46-44.08-6.72-62.7
				c10.06,4.11,18.14,11.57,20.34,24.68c0.32,1.81,19.12,91,29.88,141.93C1930.15,1565.61,1929.52,1565.54,1928.88,1565.54z"/>
		</g>
		<g>
			<g>
				<g>
					<g>
						<g>
							<g>
								<path class="st9" d="M2804.26,2422.13l-334.79,1.07c-4.58,0.01-8.29-3.8-8.31-8.53l-0.09-30.97
									c-0.01-4.72,3.68-8.56,8.25-8.57l334.79-1.06c4.57-0.02,8.29,3.8,8.3,8.52l0.09,30.97
									C2812.53,2418.27,2808.83,2422.12,2804.26,2422.13z"/>
								<g>
									<g>
										<path class="st4" d="M2469.44,2424.48c-2.53,0-4.91-1.02-6.71-2.86c-1.8-1.85-2.81-4.32-2.81-6.95l-0.09-30.97
											c-0.01-2.63,0.98-5.1,2.77-6.97c1.8-1.86,4.19-2.9,6.73-2.9l334.79-1.06c0.01,0,0.03,0,0.03,0c5.23,0,9.5,4.39,9.52,9.81
											l0.1,30.96c0.01,5.42-4.24,9.85-9.5,9.87l0,0l-334.79,1.06C2469.46,2424.48,2469.45,2424.48,2469.44,2424.48z
											 M2804.15,2375.34c-0.01,0-0.01,0-0.03,0l-334.79,1.07c-1.88,0-3.64,0.76-4.97,2.14c-1.32,1.37-2.04,3.2-2.04,5.14
											l0.08,30.97c0.01,1.94,0.75,3.76,2.08,5.13c1.33,1.36,3.09,2.11,4.96,2.11c0.01,0,0.02,0,0.03,0l334.79-1.06l0,0
											c3.88-0.01,7.02-3.28,7.01-7.29l-0.09-30.96c-0.01-1.94-0.74-3.76-2.08-5.13
											C2807.77,2376.09,2806.02,2375.34,2804.15,2375.34z"/>
									</g>
								</g>
							</g>
						</g>
					</g>
				</g>
				<g>
					<g>
						<g>
							<g>
								<path class="st9" d="M2835.91,2374.6l-334.79,1.06c-4.58,0.01-8.29-3.8-8.31-8.53l-0.09-30.96
									c-0.01-4.73,3.69-8.57,8.26-8.58l334.79-1.06c4.57-0.01,8.29,3.8,8.3,8.52l0.09,30.97
									C2844.18,2370.74,2840.49,2374.59,2835.91,2374.6z"/>
								<g>
									<g>
										<path class="st4" d="M2501.1,2376.95c-5.24,0-9.51-4.39-9.53-9.81l-0.09-30.97c-0.01-2.62,0.98-5.1,2.77-6.97
											c1.8-1.86,4.18-2.89,6.73-2.9l334.79-1.07c0.01,0,0.02,0,0.03,0c5.24,0,9.51,4.39,9.53,9.81l0.09,30.97
											c0.01,2.62-0.97,5.1-2.77,6.96c-1.79,1.86-4.18,2.9-6.73,2.9l-334.79,1.07
											C2501.12,2376.95,2501.11,2376.95,2501.1,2376.95z M2835.79,2327.81c-0.01,0-0.01,0-0.02,0l-334.79,1.07
											c-1.88,0-3.64,0.77-4.97,2.14c-1.32,1.38-2.05,3.2-2.04,5.14l0.09,30.97c0.01,4,3.17,7.25,7.04,7.25c0.01,0,0.01,0,0.02,0
											l334.79-1.07c1.88-0.01,3.64-0.77,4.97-2.14c1.32-1.38,2.05-3.2,2.04-5.14l-0.09-30.97
											C2842.82,2331.06,2839.66,2327.81,2835.79,2327.81z"/>
									</g>
								</g>
							</g>
						</g>
					</g>
				</g>
				<g>
					<g>
						<g>
							<g>
								<path class="st9" d="M2813.74,2326.53l-334.79,1.06c-4.57,0.01-8.29-3.8-8.3-8.53l-0.09-30.96
									c-0.01-4.73,3.68-8.57,8.25-8.58l334.79-1.06c4.57-0.01,8.29,3.8,8.31,8.53l0.09,30.96
									C2822,2322.67,2818.31,2326.51,2813.74,2326.53z"/>
								<g>
									<g>
										<path class="st4" d="M2478.93,2328.88c-5.24,0-9.51-4.39-9.53-9.81l-0.08-30.96c-0.01-2.63,0.97-5.1,2.77-6.97
											c1.79-1.87,4.18-2.9,6.72-2.9l334.79-1.07c2.54-0.03,4.93,1.01,6.74,2.87c1.8,1.85,2.81,4.32,2.81,6.95l0.09,30.97
											c0.01,2.62-0.98,5.1-2.77,6.97c-1.8,1.86-4.19,2.89-6.73,2.9l-334.79,1.07
											C2478.95,2328.88,2478.93,2328.88,2478.93,2328.88z M2813.63,2279.75c-0.01,0-0.02,0-0.03,0l-334.79,1.06
											c-1.88,0-3.64,0.77-4.97,2.14c-1.32,1.38-2.05,3.2-2.04,5.15l0.09,30.96c0.01,4,3.16,7.25,7.04,7.25c0.01,0,0.01,0,0.02,0
											l334.79-1.07c1.88-0.01,3.64-0.77,4.97-2.14c1.32-1.38,2.04-3.2,2.04-5.14l-0.09-30.97c0-1.94-0.74-3.76-2.07-5.13
											C2817.25,2280.49,2815.5,2279.75,2813.63,2279.75z"/>
									</g>
								</g>
							</g>
						</g>
					</g>
				</g>
				<g>
					<g>
						<g>
							<g>
								<path class="st9" d="M2789.21,2279l-334.79,1.06c-4.57,0.02-8.29-3.8-8.3-8.52l-0.09-30.97c-0.01-4.73,3.68-8.56,8.25-8.58
									l334.79-1.06c4.58-0.01,8.29,3.8,8.31,8.53l0.09,30.96C2797.47,2275.14,2793.78,2278.98,2789.21,2279z"/>
								<g>
									<g>
										<path class="st4" d="M2454.39,2281.35c-2.53,0-4.92-1.02-6.71-2.86c-1.8-1.86-2.8-4.32-2.81-6.95l-0.09-30.97
											c-0.01-2.62,0.98-5.1,2.77-6.96c1.79-1.86,4.18-2.9,6.72-2.9l334.79-1.07c0.01,0,0.02,0,0.03,0c5.24,0,9.5,4.39,9.52,9.81
											l0.09,30.97c0.01,2.62-0.98,5.1-2.77,6.97c-1.79,1.86-4.18,2.89-6.73,2.9l-334.79,1.07
											C2454.41,2281.35,2454.39,2281.35,2454.39,2281.35z M2789.09,2232.21c-0.01,0-0.01,0-0.02,0l-334.79,1.07
											c-1.88,0.01-3.64,0.77-4.97,2.14c-1.32,1.38-2.05,3.2-2.04,5.14l0.09,30.97c0.01,1.94,0.74,3.76,2.08,5.13
											c1.33,1.36,3.09,2.11,4.95,2.11c0.01,0,0.01,0,0.03,0l334.79-1.06c1.88,0,3.64-0.76,4.97-2.14
											c1.32-1.38,2.05-3.2,2.04-5.14l-0.1-30.97C2796.11,2235.46,2792.96,2232.21,2789.09,2232.21z"/>
									</g>
								</g>
							</g>
						</g>
					</g>
				</g>
				<g>
					<g>
						<g>
							<g>
								<path class="st9" d="M2835.92,2231.01l-334.79,1.06c-4.58,0.01-8.29-3.8-8.31-8.52l-0.09-30.97
									c-0.01-4.72,3.68-8.56,8.26-8.58l334.79-1.06c4.58-0.01,8.29,3.8,8.31,8.53l0.09,30.96
									C2844.18,2227.16,2840.49,2231,2835.92,2231.01z"/>
								<g>
									<g>
										<path class="st4" d="M2501.09,2233.37c-2.53,0-4.91-1.02-6.71-2.86c-1.8-1.86-2.81-4.32-2.81-6.95l-0.09-30.97
											c-0.01-2.62,0.98-5.1,2.77-6.96c1.8-1.86,4.19-2.9,6.73-2.9l334.79-1.06c0.01,0,0.02,0,0.03,0c5.24,0,9.51,4.39,9.53,9.8
											l0.1,30.97c0.01,2.62-0.98,5.1-2.77,6.97c-1.79,1.86-4.18,2.89-6.73,2.9l-334.79,1.07
											C2501.12,2233.37,2501.11,2233.37,2501.09,2233.37z M2835.79,2184.23c-0.01,0-0.01,0-0.02,0l-334.79,1.06
											c-1.88,0.01-3.64,0.77-4.97,2.14c-1.32,1.38-2.05,3.2-2.04,5.14l0.1,30.97c0,1.94,0.74,3.76,2.08,5.13
											c1.32,1.36,3.08,2.11,4.95,2.11c0.01,0,0.02,0,0.03,0l334.79-1.06c3.88-0.01,7.03-3.28,7.01-7.29l-0.09-30.97
											C2842.82,2187.47,2839.67,2184.23,2835.79,2184.23z"/>
									</g>
								</g>
							</g>
						</g>
					</g>
				</g>
				<g>
					<g>
						<g>
							<g>
								<path class="st9" d="M2826.21,2087.54l-334.79,1.06c-4.58,0.01-8.29-3.8-8.31-8.53l-0.09-30.96
									c-0.01-4.73,3.68-8.57,8.25-8.58l334.79-1.06c4.57-0.01,8.29,3.8,8.3,8.52l0.09,30.97
									C2834.48,2083.68,2830.79,2087.53,2826.21,2087.54z"/>
								<g>
									<g>
										<path class="st4" d="M2491.39,2089.88c-2.53,0-4.92-1.02-6.71-2.86c-1.81-1.85-2.81-4.32-2.81-6.95l-0.09-30.96
											c-0.01-2.63,0.98-5.1,2.77-6.97c1.79-1.87,4.18-2.9,6.73-2.9l334.79-1.07c0.01,0,0.02,0,0.03,0
											c5.24,0,9.51,4.39,9.52,9.81l0.09,30.97c0.01,2.62-0.97,5.1-2.77,6.96c-1.79,1.86-4.18,2.9-6.72,2.9l-334.79,1.06
											C2491.41,2089.88,2491.41,2089.88,2491.39,2089.88z M2826.09,2040.75c-0.01,0-0.01,0-0.02,0l-334.79,1.06
											c-1.88,0-3.64,0.76-4.97,2.14c-1.32,1.38-2.05,3.2-2.04,5.15l0.09,30.96c0.01,1.94,0.74,3.76,2.08,5.13
											c1.33,1.36,3.09,2.11,4.96,2.11c0.01,0,0.02,0,0.03,0l334.79-1.06c1.88-0.01,3.65-0.77,4.97-2.14
											c1.32-1.38,2.05-3.2,2.04-5.14l-0.09-30.97C2833.12,2044,2829.96,2040.75,2826.09,2040.75z"/>
									</g>
								</g>
							</g>
						</g>
					</g>
				</g>
				<g>
					<g>
						<g>
							<g>
								<path class="st9" d="M2851.33,2039.56l-334.79,1.06c-4.57,0.01-8.29-3.8-8.31-8.52l-0.09-30.97
									c-0.01-4.73,3.68-8.57,8.25-8.58l334.79-1.06c4.57-0.01,8.29,3.8,8.3,8.52l0.09,30.97
									C2859.6,2035.7,2855.91,2039.54,2851.33,2039.56z"/>
								<g>
									<g>
										<path class="st4" d="M2516.52,2041.91c-5.23,0-9.5-4.39-9.52-9.81l-0.09-30.97c-0.01-2.62,0.98-5.1,2.77-6.97
											c1.79-1.86,4.18-2.89,6.73-2.9l334.79-1.07c0.01,0,0.02,0,0.03,0c2.54,0,4.92,1.02,6.72,2.86c1.8,1.86,2.8,4.32,2.81,6.95
											l0.1,30.97c0.01,5.42-4.24,9.84-9.49,9.87h-0.01l-334.79,1.06C2516.54,2041.91,2516.52,2041.91,2516.52,2041.91z
											 M2851.21,1992.77c-0.01,0-0.01,0-0.02,0l-334.79,1.06c-1.88,0-3.64,0.76-4.97,2.14c-1.32,1.38-2.05,3.2-2.04,5.14
											l0.1,30.97c0.01,4,3.16,7.25,7.03,7.25c0.01,0,0.01,0,0.02,0l334.79-1.07l0,0c3.88-0.01,7.02-3.28,7.01-7.29l-0.09-30.97
											c-0.01-1.94-0.74-3.76-2.08-5.13C2854.84,1993.52,2853.09,1992.77,2851.21,1992.77z"/>
									</g>
								</g>
							</g>
						</g>
					</g>
				</g>
				<g>
					<g>
						<g>
							<g>
								<path class="st9" d="M2835.92,2183.48l-334.79,1.06c-4.58,0.01-8.29-3.8-8.31-8.52l-0.09-30.97
									c-0.01-4.72,3.68-8.56,8.26-8.57l334.79-1.07c4.58-0.01,8.29,3.8,8.31,8.53l0.09,30.96
									C2844.18,2179.63,2840.49,2183.47,2835.92,2183.48z"/>
								<g>
									<g>
										<path class="st4" d="M2501.1,2185.83c-5.24,0-9.51-4.39-9.53-9.81l-0.09-30.96c-0.01-2.63,0.98-5.1,2.77-6.97
											c1.8-1.86,4.19-2.9,6.73-2.9l334.79-1.07c0.01,0,0.02,0,0.03,0c5.24,0,9.51,4.39,9.53,9.81l0.1,30.97
											c0.01,2.63-0.98,5.1-2.77,6.97c-1.79,1.86-4.18,2.9-6.73,2.9l-334.79,1.06
											C2501.12,2185.83,2501.11,2185.83,2501.1,2185.83z M2835.79,2136.7c-0.01,0-0.01,0-0.02,0l-334.79,1.06
											c-1.88,0.01-3.64,0.77-4.97,2.15c-1.32,1.37-2.05,3.2-2.04,5.14l0.1,30.96c0.01,4,3.16,7.25,7.03,7.25
											c0.01,0,0.01,0,0.02,0l334.79-1.07c3.88-0.01,7.03-3.27,7.01-7.29l-0.09-30.97
											C2842.82,2139.94,2839.67,2136.7,2835.79,2136.7z"/>
									</g>
								</g>
							</g>
						</g>
					</g>
				</g>
				<g>
					<g>
						<path class="st9" d="M2872.8,2135.41l-334.79,1.07c-4.57,0.01-8.29-3.81-8.3-8.53l-0.09-30.97c-0.02-4.72,3.68-8.56,8.25-8.57
							l334.79-1.07c4.58-0.01,8.29,3.81,8.3,8.53l0.1,30.97C2881.07,2131.56,2877.37,2135.4,2872.8,2135.41z"/>
					</g>
					<g>
						<path class="st4" d="M2537.98,2137.76c-2.53,0-4.92-1.02-6.71-2.86c-1.8-1.86-2.8-4.32-2.81-6.95l-0.1-30.97
							c-0.01-5.42,4.24-9.85,9.5-9.87l334.79-1.06c2.4,0.03,4.93,1,6.74,2.86c1.8,1.85,2.81,4.32,2.81,6.95l0.09,30.96
							c0.01,5.42-4.24,9.85-9.49,9.87l-334.79,1.06C2538,2137.76,2538,2137.76,2537.98,2137.76z M2872.69,2088.63
							c-0.01,0-0.02,0-0.03,0l-334.79,1.06c-3.88,0.01-7.02,3.28-7.01,7.29l0.09,30.97c0.01,1.93,0.74,3.76,2.08,5.13
							c1.33,1.36,3.09,2.11,4.95,2.11c0.01,0,0.02,0,0.03,0l334.79-1.07c3.87-0.01,7.02-3.28,7.01-7.29l-0.1-30.96
							c-0.01-1.94-0.74-3.76-2.07-5.13S2874.56,2088.63,2872.69,2088.63z"/>
					</g>
				</g>
				<g>
					<g>
						<g>
							<g>
								<path class="st9" d="M2474.04,1992.5l334.79,1.06c4.58,0.02,8.29-3.8,8.31-8.52l0.09-30.97c0.01-4.72-3.68-8.56-8.25-8.57
									l-334.79-1.07c-4.58-0.01-8.29,3.81-8.31,8.53l-0.09,30.96C2465.77,1988.65,2469.46,1992.49,2474.04,1992.5z"/>
								<g>
									<g>
										<path class="st4" d="M2808.85,1994.85c-0.01,0-0.03,0-0.03,0l-334.79-1.06c-2.55-0.01-4.93-1.04-6.73-2.9
											c-1.79-1.86-2.77-4.34-2.77-6.97l0.09-30.97c0.01-5.41,4.28-9.81,9.52-9.81c0.01,0,0.02,0,0.03,0l334.79,1.07
											c5.25,0.02,9.51,4.45,9.49,9.87l-0.09,30.96c-0.01,2.63-1,5.1-2.81,6.95C2813.77,1993.83,2811.39,1994.85,2808.85,1994.85
											z M2474.15,1945.72c-3.87,0-7.02,3.24-7.03,7.24l-0.1,30.97c-0.01,4.01,3.13,7.28,7.01,7.29l334.79,1.07
											c0.01,0,0.02,0,0.03,0c1.87,0,3.63-0.75,4.95-2.11c1.33-1.37,2.07-3.2,2.08-5.14l0.09-30.96
											c0.01-4.01-3.14-7.28-7.01-7.29l-334.79-1.06C2474.17,1945.72,2474.16,1945.72,2474.15,1945.72z"/>
									</g>
								</g>
							</g>
						</g>
					</g>
				</g>
				<g>
					<g>
						<g>
							<g>
								<path class="st9" d="M2509.62,1849.02l334.79,1.06c4.57,0.02,8.29-3.8,8.3-8.52l0.09-30.97c0.01-4.73-3.68-8.56-8.25-8.58
									l-334.79-1.06c-4.57-0.01-8.29,3.8-8.31,8.53l-0.09,30.96C2501.35,1845.17,2505.05,1849.01,2509.62,1849.02z"/>
								<g>
									<g>
										<path class="st4" d="M2844.44,1851.37c-0.01,0-0.02,0-0.03,0l-334.79-1.07c-2.55-0.01-4.93-1.04-6.73-2.9
											c-1.79-1.87-2.77-4.34-2.77-6.97l0.09-30.97c0.02-5.42,4.29-9.81,9.52-9.81c0.01,0,0.01,0,0.03,0l334.79,1.07
											c2.54,0.01,4.93,1.04,6.72,2.9c1.8,1.86,2.78,4.34,2.77,6.96l-0.08,30.97c-0.01,2.62-1.01,5.1-2.81,6.95
											C2849.36,1850.36,2846.97,1851.37,2844.44,1851.37z M2509.74,1802.23c-3.87,0-7.02,3.25-7.03,7.25l-0.09,30.97
											c-0.01,1.94,0.72,3.76,2.04,5.14c1.33,1.38,3.09,2.14,4.97,2.14l334.79,1.06c0.01,0,0.02,0,0.03,0
											c1.87,0,3.63-0.75,4.95-2.11c1.33-1.37,2.07-3.19,2.08-5.13l0.09-30.97c0.01-1.94-0.72-3.76-2.04-5.14
											c-1.33-1.37-3.09-2.14-4.97-2.14l-334.79-1.07C2509.75,1802.23,2509.75,1802.23,2509.74,1802.23z"/>
									</g>
								</g>
							</g>
						</g>
					</g>
				</g>
				<g>
					<g>
						<path class="st9" d="M2474.04,1944.97l334.79,1.07c4.58,0.01,8.29-3.81,8.31-8.53l0.09-30.97c0.01-4.72-3.68-8.56-8.25-8.57
							l-334.79-1.07c-4.58-0.01-8.29,3.81-8.31,8.53l-0.09,30.97C2465.77,1941.11,2469.46,1944.95,2474.04,1944.97z"/>
					</g>
					<g>
						<path class="st4" d="M2808.85,1947.32c-0.01,0-0.02,0-0.03,0l-334.79-1.06c-2.55-0.01-4.93-1.04-6.73-2.9
							c-1.79-1.87-2.77-4.34-2.77-6.97l0.09-30.96c0.01-5.42,4.28-9.81,9.52-9.81c0.01,0,0.02,0,0.03,0l334.79,1.06
							c2.54,0.01,4.93,1.04,6.72,2.9c1.8,1.87,2.78,4.34,2.77,6.97l-0.09,30.96C2818.35,1942.92,2814.09,1947.32,2808.85,1947.32z
							 M2474.15,1898.18c-3.87,0-7.02,3.25-7.03,7.25l-0.1,30.96c-0.01,4,3.13,7.28,7.01,7.29l334.79,1.06c0.01,0,0.01,0,0.02,0
							c3.87,0,7.02-3.25,7.04-7.25l0.09-30.96c0.01-1.94-0.72-3.77-2.04-5.15c-1.33-1.37-3.09-2.14-4.97-2.14l-334.79-1.06
							C2474.17,1898.18,2474.16,1898.18,2474.15,1898.18z"/>
					</g>
				</g>
				<g>
					<g>
						<path class="st9" d="M2494.97,1896.89l334.79,1.07c4.57,0.01,8.29-3.8,8.31-8.53l0.09-30.96c0.01-4.73-3.68-8.57-8.25-8.58
							l-334.79-1.06c-4.57-0.02-8.29,3.8-8.3,8.52l-0.09,30.97C2486.71,1893.04,2490.4,1896.88,2494.97,1896.89z"/>
					</g>
					<g>
						<path class="st4" d="M2829.79,1899.24c-0.01,0-0.02,0-0.03,0l-334.79-1.06c-2.55-0.01-4.94-1.04-6.73-2.9
							c-1.8-1.86-2.78-4.34-2.77-6.96l0.1-30.97c0.01-5.42,4.28-9.81,9.52-9.81c0.01,0,0.01,0,0.03,0l334.79,1.06
							c5.25,0.02,9.51,4.45,9.49,9.87l-0.09,30.96C2839.29,1894.85,2835.02,1899.24,2829.79,1899.24z M2495.09,1850.11
							c-3.87,0-7.02,3.25-7.04,7.25l-0.09,30.97c-0.01,4,3.13,7.27,7.01,7.29l334.79,1.06c0.01,0,0.01,0,0.02,0
							c3.87,0,7.02-3.25,7.03-7.25l0.09-30.96c0.01-4-3.13-7.28-7.01-7.29l-334.79-1.06
							C2495.1,1850.11,2495.1,1850.11,2495.09,1850.11z"/>
					</g>
				</g>
			</g>
			<g>
				<g>
					<g>
						<g>
							<path class="st9" d="M2897.1,2181.99c57-32.49,88.12-112.24,71.51-195.83c-16.52-83.02-74.86-143.37-139.12-150.7l-1.15-5.86
								l-35.75,7.6c-77.56,16.45-124.54,109.85-104.9,208.59c19.64,98.74,98.45,165.44,176.02,148.98l34.64-6.41L2897.1,2181.99z"/>
							<g>
								<g>
									<path class="st4" d="M2840.03,2198.54c-69.84,0.01-135.84-63.35-153.57-152.49c-9.55-48.04-3.83-96.34,16.12-136.01
										c19.99-39.75,51.86-66.07,89.75-74.1l36.98-7.85l1.21,6.2c65.91,8.03,123.11,70.22,139.3,151.61
										c16.33,82.17-12.98,162.92-71.33,196.75l1.32,6.74l-35.9,6.64C2855.95,2197.72,2847.96,2198.54,2840.03,2198.54z
										 M2827.36,1831.13l-34.53,7.33c-37.14,7.88-68.41,33.72-88.05,72.77c-19.69,39.14-25.33,86.84-15.89,134.3
										c19.46,97.88,97.77,164.27,174.54,147.98l33.42-6.18l-1.17-6.01l0.79-0.46c57.94-33.03,87.09-112.99,70.89-194.45
										c-16.05-80.68-72.81-142.24-138.03-149.68l-0.9-0.1L2827.36,1831.13z"/>
								</g>
							</g>
						</g>
					</g>
					<g>
						<path class="st2" d="M3004.36,1978.57c19.64,98.74-28.45,193.32-106.02,209.78c-77.57,16.46-155.27-51.42-174.92-150.16
							c-19.64-98.74,27.34-192.13,104.91-208.6C2905.91,1813.14,2984.72,1879.84,3004.36,1978.57z"/>
					</g>
					<g>
						<g>
							<path class="st9" d="M2979.28,1983.98c16.12,81.1-23.37,158.79-87.08,172.29c-63.73,13.53-127.55-42.22-143.67-123.32
								c-16.13-81.1,22.45-157.81,86.17-171.33C2898.42,1848.11,2963.16,1902.88,2979.28,1983.98z"/>
							<g>
								<g>
									<path class="st4" d="M2872.88,2159.6c-24.77,0-49.47-9.79-71.17-28.51c-27.2-23.48-46.52-58.24-54.4-97.88
										c-16.23-81.66,22.85-159.2,87.14-172.84c31.19-6.62,63.57,2.6,91.17,25.96c27.53,23.29,47.02,57.88,54.88,97.4
										c7.85,39.48,2.98,79.38-13.72,112.35c-16.71,33.02-43.11,54.85-74.33,61.46C2885.96,2158.91,2879.42,2159.6,2872.88,2159.6
										z M2854.32,1860.85c-6.47,0-12.95,0.67-19.37,2.03c-62.94,13.36-101.15,89.54-85.2,169.81
										c7.77,39.08,26.78,73.31,53.55,96.42c26.82,23.15,58.3,32.36,88.64,25.91c30.47-6.46,56.26-27.82,72.62-60.14
										c16.43-32.45,21.22-71.74,13.48-110.64c-7.74-38.93-26.92-73-54.01-95.92C2902.73,1870.28,2878.54,1860.85,2854.32,1860.85
										z"/>
								</g>
							</g>
						</g>
					</g>
					<g>
						<g>
							<g>
								<path class="st3" d="M2858.94,1933.7c4.43-0.42,8.76-0.26,13.03,0.46c4.27,0.72,8.3,2.11,12.1,4.17
									c3.78,2.06,7.24,4.86,10.36,8.43c3.12,3.59,5.74,7.96,7.85,13.18l-15.55,3.7c-3.08-5.05-6.58-8.76-10.51-11.13
									c-3.93-2.38-8.52-3.42-13.79-3.15l9.98,44.82c3.44,0.64,6.86,1.31,10.25,2c3.39,0.68,6.67,1.52,9.85,2.5
									c3.18,1,6.2,2.17,9.03,3.55c2.83,1.39,5.42,3.08,7.75,5.1c2.34,2.03,4.32,4.41,5.98,7.14c1.65,2.73,2.89,5.92,3.7,9.56
									c1.36,6.08,1.43,11.62,0.21,16.6c-1.21,4.99-3.27,9.44-6.16,13.37c-2.91,3.93-6.43,7.29-10.59,10.08
									c-4.16,2.8-8.5,5.01-12.97,6.63l4.99,22.42l-15.74,3.73l-5.08-22.8c-4.92,0.05-9.67-0.74-14.32-2.4
									c-4.64-1.64-9-4-13.05-7.08c-4.06-3.07-7.72-6.78-10.98-11.17c-3.27-4.38-5.94-9.26-8.03-14.69l16.51-3.91
									c1.32,3.23,2.92,6.22,4.77,8.94c1.86,2.71,3.9,5.08,6.13,7.1c2.23,2.01,4.65,3.61,7.24,4.8c2.6,1.2,5.29,1.91,8.11,2.16
									l-10.84-48.69c-4.8-0.96-9.47-2.06-13.98-3.31c-4.52-1.26-8.69-2.96-12.51-5.12c-3.82-2.16-7.1-4.9-9.82-8.21
									c-2.71-3.31-4.66-7.57-5.8-12.71c-1.02-4.56-1.07-9-0.14-13.29c0.93-4.29,2.6-8.28,5.01-11.99
									c2.42-3.71,5.44-7.02,9.09-9.95c3.67-2.92,7.72-5.29,12.17-7.11l-3.2-14.38l15.72-3.75L2858.94,1933.7z M2833.24,1975.31
									c0.53,2.37,1.45,4.44,2.74,6.18c1.29,1.75,2.9,3.27,4.8,4.56c1.9,1.29,4.07,2.38,6.54,3.29c2.47,0.91,5.1,1.69,7.95,2.35
									l-8.55-38.38c-5.41,2.34-9.25,5.5-11.52,9.47C2832.92,1966.77,2832.27,1970.94,2833.24,1975.31z M2902.75,2028.31
									c-0.54-2.38-1.61-4.45-3.25-6.18c-1.63-1.73-3.65-3.26-6.07-4.55c-2.41-1.31-5.08-2.42-8.01-3.31
									c-2.94-0.9-5.96-1.69-9.06-2.34l9.62,43.22c3.23-1.26,6.03-2.86,8.38-4.81c2.36-1.95,4.27-4.12,5.74-6.47
									c1.46-2.38,2.41-4.88,2.86-7.53C2903.43,2033.7,2903.35,2031.02,2902.75,2028.31z"/>
							</g>
						</g>
					</g>
				</g>
			</g>
			<g>
				<g>
					<g>
						<g>
							<g>
								<path class="st9" d="M3080.5,2422.26l-334.79,1.06c-4.57,0.02-8.29-3.8-8.3-8.52l-0.1-30.97c-0.01-4.72,3.68-8.56,8.25-8.58
									l334.79-1.06c4.57-0.01,8.29,3.8,8.3,8.53l0.1,30.96C3088.77,2418.4,3085.07,2422.25,3080.5,2422.26z"/>
								<g>
									<g>
										<path class="st4" d="M2745.68,2424.61c-2.53,0-4.91-1.02-6.71-2.86c-1.8-1.86-2.8-4.32-2.81-6.95l-0.09-30.97
											c-0.01-2.62,0.98-5.1,2.77-6.97c1.79-1.86,4.18-2.89,6.73-2.9l334.79-1.06c0.01,0,0.02,0,0.03,0
											c5.23,0,9.51,4.39,9.53,9.8l0.09,30.97c0.01,5.42-4.25,9.85-9.49,9.87l0,0l-334.79,1.06
											C2745.7,2424.61,2745.69,2424.61,2745.68,2424.61z M3080.38,2375.47c-0.01,0-0.02,0-0.03,0l-334.79,1.06
											c-1.88,0.01-3.65,0.77-4.97,2.14c-1.33,1.38-2.05,3.2-2.04,5.14l0.09,30.97c0.01,1.94,0.74,3.76,2.08,5.13
											c1.32,1.36,3.08,2.11,4.95,2.11c0.01,0,0.01,0,0.02,0l334.79-1.05l0,0c3.88-0.02,7.02-3.29,7.01-7.29l-0.09-30.97
											C3087.4,2378.72,3084.25,2375.47,3080.38,2375.47z"/>
									</g>
								</g>
							</g>
						</g>
					</g>
				</g>
				<g>
					<g>
						<g>
							<g>
								<path class="st9" d="M3012.98,2278.78l-334.79,1.06c-4.58,0.01-8.29-3.8-8.31-8.52l-0.09-30.97
									c-0.01-4.73,3.68-8.57,8.25-8.58l334.79-1.06c4.57-0.01,8.29,3.8,8.3,8.53l0.09,30.96
									C3021.25,2274.93,3017.55,2278.77,3012.98,2278.78z"/>
								<g>
									<g>
										<path class="st4" d="M2678.16,2281.13c-5.23,0-9.5-4.39-9.52-9.81l-0.09-30.96c-0.01-2.63,0.98-5.1,2.77-6.97
											c1.8-1.87,4.18-2.9,6.72-2.9l334.79-1.07c0.01,0,0.02,0,0.03,0c5.24,0,9.51,4.39,9.52,9.81l0.09,30.96
											c0.02,5.42-4.24,9.85-9.49,9.88l0,0l-334.79,1.06C2678.18,2281.13,2678.18,2281.13,2678.16,2281.13z M3012.86,2232
											c-0.01,0-0.01,0-0.02,0l-334.79,1.06c-1.88,0-3.64,0.76-4.96,2.14c-1.33,1.37-2.05,3.2-2.04,5.15l0.09,30.96
											c0.01,4,3.16,7.24,7.03,7.24c0.01,0,0.01,0,0.03,0l334.79-1.06l0,0c3.88-0.01,7.02-3.28,7.01-7.29l-0.09-30.97
											C3019.88,2235.24,3016.73,2232,3012.86,2232z"/>
									</g>
								</g>
							</g>
						</g>
					</g>
				</g>
				<g>
					<g>
						<g>
							<g>
								<path class="st9" d="M3038.1,2230.8l-334.79,1.06c-4.57,0.01-8.29-3.8-8.31-8.52l-0.09-30.97
									c-0.01-4.73,3.68-8.57,8.25-8.58l334.79-1.06c4.57-0.01,8.29,3.8,8.3,8.53l0.1,30.96
									C3046.37,2226.95,3042.67,2230.78,3038.1,2230.8z"/>
								<g>
									<g>
										<path class="st4" d="M2703.28,2233.15c-5.23,0-9.5-4.39-9.52-9.81l-0.09-30.97c-0.01-2.63,0.98-5.1,2.77-6.96
											c1.8-1.87,4.19-2.9,6.73-2.91l334.79-1.06c0.01,0,0.02,0,0.03,0c5.24,0,9.51,4.39,9.52,9.81l0.1,30.96
											c0.01,5.42-4.25,9.85-9.49,9.88h-0.01l-334.79,1.06C2703.3,2233.15,2703.29,2233.15,2703.28,2233.15z M3037.98,2184.02
											c-0.01,0-0.01,0-0.02,0l-334.79,1.06c-1.88,0-3.65,0.76-4.97,2.14c-1.33,1.37-2.05,3.2-2.04,5.14l0.09,30.97
											c0.01,4,3.16,7.24,7.03,7.24c0.01,0,0.01,0,0.02,0l334.79-1.06l0,0c3.88-0.01,7.02-3.28,7.01-7.29l-0.09-30.97
											C3045,2187.26,3041.85,2184.02,3037.98,2184.02z"/>
									</g>
								</g>
							</g>
						</g>
					</g>
				</g>
				<g>
					<g>
						<g>
							<g>
								<path class="st9" d="M3080.5,2374.73l-334.79,1.07c-4.57,0.01-8.29-3.81-8.3-8.53l-0.1-30.97
									c-0.01-4.72,3.68-8.56,8.25-8.57l334.79-1.07c4.57-0.01,8.29,3.8,8.3,8.53l0.1,30.96
									C3088.77,2370.87,3085.07,2374.71,3080.5,2374.73z"/>
								<g>
									<g>
										<path class="st4" d="M2745.68,2377.08c-5.23,0-9.5-4.39-9.52-9.8l-0.09-30.97c-0.01-2.63,0.98-5.1,2.77-6.97
											c1.79-1.86,4.18-2.9,6.73-2.9l334.79-1.06c0.01,0,0.02,0,0.03,0c2.53,0,4.92,1.02,6.71,2.86c1.8,1.86,2.8,4.32,2.81,6.95
											l0.09,30.96c0.01,2.63-0.98,5.1-2.77,6.97c-1.8,1.86-4.19,2.89-6.73,2.9l-334.79,1.06
											C2745.7,2377.08,2745.7,2377.08,2745.68,2377.08z M3080.38,2327.94c-0.01,0-0.02,0-0.03,0l-334.79,1.06
											c-1.88,0.01-3.65,0.77-4.97,2.14c-1.33,1.38-2.05,3.21-2.04,5.15l0.09,30.97c0.01,4,3.16,7.24,7.03,7.24
											c0.01,0,0.02,0,0.03,0l334.79-1.07c1.88,0,3.65-0.76,4.97-2.13c1.33-1.38,2.05-3.21,2.04-5.15l-0.09-30.96
											c-0.01-1.95-0.74-3.76-2.08-5.13C3084.02,2328.69,3082.25,2327.94,3080.38,2327.94z"/>
									</g>
								</g>
							</g>
						</g>
					</g>
				</g>
				<g>
					<g>
						<path class="st9" d="M3059.56,2326.65l-334.79,1.07c-4.57,0.01-8.29-3.8-8.3-8.53l-0.09-30.96c-0.01-4.73,3.68-8.57,8.26-8.58
							l334.79-1.07c4.58-0.01,8.29,3.81,8.31,8.53l0.09,30.97C3067.83,2322.8,3064.13,2326.64,3059.56,2326.65z"/>
					</g>
					<g>
						<path class="st4" d="M2724.75,2329c-5.24,0-9.51-4.39-9.53-9.8l-0.1-30.97c-0.01-2.62,0.98-5.1,2.77-6.97
							c1.79-1.86,4.18-2.9,6.73-2.9l334.79-1.06c2.6,0.06,4.93,1.01,6.74,2.86c1.8,1.86,2.81,4.32,2.81,6.95l0.09,30.96
							c0.01,5.42-4.25,9.85-9.49,9.87l0,0l-334.79,1.06C2724.77,2329,2724.76,2329,2724.75,2329z M3059.45,2279.87
							c-0.01,0-0.02,0-0.03,0l-334.79,1.07c-1.88,0-3.65,0.76-4.97,2.14c-1.32,1.37-2.05,3.2-2.04,5.14l0.09,30.97
							c0.01,4,3.17,7.24,7.04,7.24c0.01,0,0.01,0,0.02,0l334.79-1.06h-0.01c3.88-0.01,7.02-3.28,7.02-7.29l-0.1-30.96
							c-0.01-1.95-0.74-3.76-2.07-5.13S3061.32,2279.87,3059.45,2279.87z"/>
					</g>
				</g>
			</g>
		</g>
		<g>
			<g>
				<path class="st4" d="M1820.87,1393.01c-7.21-41.47-75.97-26.58-75.97-26.58c59.96-102.61,136.63-38.14,161.18-3.01
					c32.09,45.92,48.72,144.73,25.23,161.63l-8.84-5.44l-3.2,14.97c-12.29,13.63-48.07,35.3-59.67,35.08
					C1859.6,1569.65,1821.31,1395.57,1820.87,1393.01z"/>
			</g>
			<g>
				<g>
					<g>
						<g>
							<polygon class="st12" points="984.38,2373.08 932.94,2276.52 1019.96,2212.4 1084.38,2333.34 							"/>
						</g>
						<g>
							<path class="st1" d="M976.48,2240.29c0,0,14.52,26.52-0.66,54.97c-15.19,28.45,5.44,39.66,10.25,47.2
								c4.81,7.53,9.36,17.73,8.69,30.9c0,0-67.09,43.41-99.97,61.99l-208.43-259.74c0,0,15.12-21.89,43.08-5.86
								c27.95,16.02,130.42,99.33,161.92,98.87C922.87,2268.18,976.48,2240.29,976.48,2240.29z"/>
							<g>
								<path class="st2" d="M872.56,2379.3c39.73-25.53,87.71,9.59,88.2,9.96l2.1-3.02c-0.5-0.37-50.45-36.92-92.2-10.1
									L872.56,2379.3z"/>
							</g>
							<path class="st4" d="M914.4,2422.69c-7.51,5.23-14.24,9.64-19.6,12.66l-208.43-259.74c0,0,7.07-10.21,20.47-11.58
								L914.4,2422.69z"/>
							<g>
								<path class="st2" d="M834.89,2269.62l0.24,0.23c2.28,2.14,56.07,52.49,81.22,45.2c25.04-7.27,53.31-31.65,54.37-32.73
									l-2.53-2.64c-0.24,0.25-29.48,25.03-52.81,31.8c-22.46,6.52-73.67-40.51-77.59-44.15l-17.38-34.6l-3.19,1.71L834.89,2269.62
									z"/>
							</g>
							<g>
								<polygon class="st2" points="869.62,2288.79 872.89,2287.25 858.81,2255.21 855.53,2256.74 								"/>
							</g>
							<g>
								<polygon class="st2" points="901.03,2302.47 904.3,2300.94 890.22,2268.89 886.95,2270.43 								"/>
							</g>
						</g>
					</g>
					<path class="st4" d="M1311.56,2045.64c72.48-10.25,293.41,40.46,388.03,69.04c35.61,10.76,54.26,45.12,60.56,87.38
						l107.68,39.21c0,0,45.48,179.41,7.5,190.51c-37.98,11.11-211.39-2.55-211.39-2.55h0c-89.2,0.7-290.15-79.42-381.5-131.08
						C1185.45,2243.29,1170.43,2065.61,1311.56,2045.64z"/>
					<g>
						<path class="st4" d="M1295.4,2048.5c-48.57,8.57-291.37,96.13-291.37,96.13s-19.62,182.73,84.47,243.91
							c0,0,235.31-65.21,350.78-160.08C1485.71,2190.31,1406.11,2028.97,1295.4,2048.5z"/>
						<g>
							<path class="st2" d="M1088.2,2390.99l0.88-0.24c2.35-0.65,160.33-32.36,274.84-126.45c1.22-1,2.38-2.1,3.51-3.28l-3.16-3.2
								c-1,1.05-2.03,2.02-3.1,2.9c-110.25,90.59-256.47,120.86-272.35,125.36c-54.16-32.36-73.58-99-80.33-149.34l-4.38,0.63
								c6.91,51.59,26.99,120.04,83.32,153.15L1088.2,2390.99z"/>
						</g>
					</g>
				</g>
				<g>
					<path class="st1" d="M1789.1,1601.04c-21.34-21.08-77.93-49.15-122.54,9.33c-44.62,58.49-172.69,242.19-181.77,296.69
						c-13.12,78.76,99.16,191.87,206.44,129.16c69.15-40.42,107.48-240.77,122.59-309.43
						C1828.92,1658.13,1816.49,1628.09,1789.1,1601.04z"/>
					<path class="st4" d="M1655.35,1908.23c47.98,33.58,64.33,84.25,36.51,113.18c-27.81,28.93-89.24,25.16-137.21-8.42
						c-47.97-33.57-64.32-84.25-36.51-113.18C1545.95,1870.88,1607.38,1874.65,1655.35,1908.23z"/>
					<g>
						<path class="st12" d="M1527.88,1988.63c-30.25-31.69-32.73-64.91-9.75-88.82c27.81-28.93,89.24-25.16,137.21,8.42
							c23.21,16.24,38.99,36.49,45.98,56.33C1649.29,2012.84,1586.71,2022.11,1527.88,1988.63z"/>
					</g>
					<g>
						<path class="st12" d="M1419.37,1723.63c0,0,40.22,139.64,73.63,213.05c15.31,33.64,72.37,69.66,95.45,41.13
							c0.35-0.44,14.54-16.95,16.55-47.94c2.02-31.05-21.07-79.28-43.7-122.07l-86.81-137.03L1419.37,1723.63z"/>
					</g>
				</g>
				<g>
					<g>
						<g>
							<polygon class="st12" points="1231.19,2332.46 1159.1,2244.04 1235.87,2159.62 1326.17,2270.36 							"/>
						</g>
						<g>
							<path class="st1" d="M1176.93,2210.21c0,0,25.29,18.41,23.26,52.43c-2.03,34.02,22.4,35.08,30.23,39.99
								c7.84,4.92,16.58,12.47,21.67,25.27c0,0-8.95,57.39-17.25,97.08l-342.5-7.49c0,0-6.43-27.43,25.07-39.33
								c31.49-11.9,165.79-38.69,187.06-64.81C1125.75,2287.24,1176.93,2210.21,1176.93,2210.21z"/>
							<g>
								<path class="st2" d="M1176.53,2404.74c7.67-50.08,67.57-65.29,68.18-65.44l-0.88-3.79c-0.62,0.16-62.98,16-71.04,68.63
									L1176.53,2404.74z"/>
							</g>
							<path class="st4" d="M1238.57,2400.23c-1.13,9.75-2.38,18.29-3.73,24.75l-342.5-7.49c0,0-2.99-12.81,5.16-24.72
								L1238.57,2400.23z"/>
							<g>
								<path class="st2" d="M1066.47,2360.32l0.33-0.04c3.21-0.39,78.8-9.91,90.46-35.53c11.61-25.51,31.93-70.51,32.46-72.01
									l-3.54-1.33c-0.12,0.35-21.52,47.92-32.33,71.68c-10.41,22.88-81.68,32.57-87.16,33.28l-38.5-9.51l-0.88,3.79
									L1066.47,2360.32z"/>
							</g>
							<g>
								<polygon class="st2" points="1105.02,2345.03 1106.09,2341.28 1071.83,2330.83 1070.75,2334.57 								"/>
							</g>
							<g>
								<polygon class="st2" points="1137.09,2328.67 1138.16,2324.93 1103.89,2314.48 1102.82,2318.22 								"/>
							</g>
						</g>
					</g>
					<path class="st4" d="M1554,1923.95c76.61,4.6,317.61,121,409.4,170.2c110.1,59,33.83,335.79-52.63,338.41
						c-209.65,6.34-349.63-180.22-436.22-254.8C1385.48,2101.03,1404.82,1914.99,1554,1923.95z"/>
					<g>
						<path class="st4" d="M1486.64,1932.6c-48.26,19.11-280.63,160.69-280.63,160.69s16.14,192.13,135.37,232.99
							c0,0,229.1-116.99,329.03-239.08C1710.6,2038.1,1596.65,1889.02,1486.64,1932.6z"/>
						<g>
							<path class="st2" d="M1341.56,2328.86l0.86-0.44c2.29-1.17,158.5-67.3,257.59-188.37c1.05-1.28,2.03-2.66,2.96-4.11
								l-3.89-2.62c-0.81,1.29-1.69,2.51-2.61,3.65c-95.41,116.57-239.82,178.72-255.26,186.72
								c-62.15-21.8-95.36-86.24-112.31-136.58l-4.38,1.58c17.36,51.62,51.62,117.77,116.14,139.88L1341.56,2328.86z"/>
						</g>
					</g>
					<g>
						<path class="st2" d="M1863.96,2431.58c2.56,0,3.94-0.1,4.07-0.12l-0.39-4.47c-1.29,0.14-131.97,9.67-320.32-182.55l-3.05,3.18
							C1715.67,2422.57,1840.28,2431.58,1863.96,2431.58z"/>
					</g>
					<g>
						<path class="st2" d="M1221.54,2178.95l4.08-1.55c-14.13-39.68-16.93-75.57-17.37-82.86l165.18-98.27l-2.17-3.89l-167.47,99.64
							l0.05,1.35C1203.85,2093.78,1205.53,2133.99,1221.54,2178.95z"/>
					</g>
				</g>
				<path class="st1" d="M1619.06,1939c225.8,96.92,132.73,491.76,392.94,439.15c0,0,20.03-69.46,21.48-172.27
					c0.33-21.44,0.14-43.63,0.83-67.68c4.77-163.23-28.08-509.45-35.22-526.61c-10.01-24.09-41.44-73.3-149.14-76.71
					c-50.88-1.61-85.51,16.2-105.36,22.44c-41.53,12.98-106.14,49.79-114.39,153.93C1622.43,1809.87,1619.06,1939,1619.06,1939z"/>
				<g>
					<g>
						<path class="st12" d="M1720.68,1505.59l19.86,60.18c5.86,4.56,35.48,22.98,76.77-32.06l-28.4-86.04
							C1788.91,1447.66,1764.02,1472.48,1720.68,1505.59z"/>
					</g>
					<path class="st4" d="M1728.01,1527.86l10.73,32.45c41.75-13.75,28.62-56.99,28.57-56.9
						C1751.67,1523.66,1734.07,1526.46,1728.01,1527.86z"/>
					<g>
						<g>
							<path class="st12" d="M1736.19,1536.67c21.88-5.79,54.43-46.89,58.32-69.88c1.38-8.19-4.58-27.47-9.74-36.2
								c-16.21-27.34-29.97-52.39-54.23-54.8c-10.22-1-47.94,11.17-56.78,13.43c-20.22,5.2-11.57,37.27-4.51,67.38
								C1677.16,1490.38,1697.61,1546.87,1736.19,1536.67z"/>
						</g>
					</g>
					<g>
						<path class="st4" d="M1708.75,1487.11l0.08-3.78c-4.6-0.1-12.01-1.26-13.32-3.42c-0.1-0.16-0.28-0.45,0.04-1.17
							c6.71-15.25-1.49-35.16-1.84-36l-0.31-0.74l-0.74-0.28c-0.42-0.16-10.33-3.8-21.6,3.65l1.97,3.18
							c8.14-5.36,15.34-4.11,17.62-3.5c1.41,3.76,6.88,20.01,1.55,32.13c-0.93,2.13-0.41,3.76,0.2,4.75
							C1695.24,1486.58,1706.51,1487.06,1708.75,1487.11z"/>
					</g>
					<g>
						<path class="st4" d="M1670.22,1325.2c35.38-9.09,66.84-7.9,107.09,10.67c40.46,18.66,28.55,136.47,24.97,147.49
							c-0.49,1.5-1.06,2.66-1.71,3.49l-11.66-48.46l-27.92-1.83c-4.92-12.23-1.14-17.84-3.5-27.65
							c-6.64-27.61-61.1-18.87-93.57-7.85C1638.51,1409.67,1604.87,1341.98,1670.22,1325.2z"/>
					</g>
					<g>
						<g>
							<path class="st12" d="M1764.92,1433.59c-0.77,12.01,8.03,22.4,19.66,23.2c11.63,0.79,21.68-8.3,22.45-20.31
								c0.77-12.02-8.03-22.4-19.66-23.2C1775.74,1412.48,1765.69,1421.58,1764.92,1433.59z"/>
						</g>
					</g>
					<g>
						<path class="st4" d="M1790.49,1446.36c1.99-0.51,3.84-1.67,5.07-2.7l-2.31-2.94c-0.04,0.03-4.33,3.44-6.31,1.5
							c-0.31-0.31-0.36-0.46-0.36-0.46c0.03-0.14,0.38-0.68,0.62-1.04c0.99-1.52,2.65-4.06,0.74-7.92
							c-1.27-2.58-3.15-3.83-4.53-4.74c-1.88-1.26-2.17-1.45-0.81-4.32c0.38-0.8,0.93-1.28,1.73-1.49
							c3.61-0.9,10.02,2.97,12.03,4.42l2.09-3.11c-0.93-0.66-9.25-6.46-14.96-4.99c-0.03,0.01-0.05,0.01-0.08,0.02
							c-1.84,0.49-3.25,1.7-4.1,3.48c-2.59,5.46-0.57,7.38,2.12,9.17c1.19,0.79,2.42,1.62,3.25,3.28c0.92,1.88,0.35,2.75-0.52,4.08
							c-0.85,1.3-2.43,3.71,0.24,6.35C1786.19,1446.72,1788.41,1446.89,1790.49,1446.36z"/>
					</g>
					<g>
						<path class="st4" d="M1701.94,1501.37c0,0,20.7,5.53,32.21-9.67c0,0-2.44,21.93-12.81,24.79
							C1710.98,1519.33,1701.94,1501.37,1701.94,1501.37z"/>
					</g>
					<g>
						<path class="st4" d="M1710.06,1435.41c0.13-0.46,3.37-11.13,23.24-11.82l-0.13-3.78c-22.77,0.81-26.5,14.04-26.65,14.6
							L1710.06,1435.41z"/>
					</g>
					<g>
						<path class="st4" d="M1729.23,1447.33c0.95,3.94-1.38,7.93-5.19,8.91c-3.81,0.98-7.67-1.42-8.62-5.36
							c-0.95-3.95,1.38-7.94,5.19-8.91C1724.42,1440.99,1728.29,1443.38,1729.23,1447.33z"/>
					</g>
					<g>
						<path class="st4" d="M1687.67,1458c0.95,3.94-1.38,7.93-5.19,8.91c-3.81,0.98-7.67-1.42-8.62-5.36
							c-0.95-3.94,1.37-7.93,5.19-8.91C1682.86,1451.66,1686.72,1454.06,1687.67,1458z"/>
					</g>
				</g>
				<g>
					<path class="st2" d="M1786.58,1602.34c15.62-7.21,31.23-20.79,44.34-44.73l-3.85-2.26c-43.59,79.59-113.89,40.59-116.88,38.89
						l-2.15,4C1708.59,1598.56,1747.64,1620.29,1786.58,1602.34z"/>
				</g>
				<g>
					<path class="st4" d="M1621.99,1956.99c-0.02-1.52-1.95-152.16,8.75-222.83l-4.29-0.7c-10.76,71.04-8.82,222.07-8.81,223.59
						L1621.99,1956.99z"/>
				</g>
			</g>
			<path class="st4" d="M1636.71,1947.53c0,0-73.97-32.44-102.73-42.59c-28.76-10.14-156.52,86.43-156.52,86.43
				s11.08,42.46,13.25,42.46c2.17,0,321.27-15.28,321.27-15.28L1636.71,1947.53z"/>
			<g>
				<g>
					<g>
						<path class="st4" d="M1525.32,1762.71l-84.3-13.48c-8.57-0.48-16.51-8.16-17.7-17.11l-35.58-206.48
							c-1.14-8.63,6.83-23.05,19.88-22.32l92.5,5.15c8.57,0.47,16.51,8.15,17.7,17.1L1546,1739
							C1547.18,1747.95,1540.58,1763.57,1525.32,1762.71z"/>
					</g>
					<g>
						<g>
							<path class="st1" d="M1525.32,1762.71l-91.58-5.12c-8.57-0.48-16.51-8.15-17.7-17.1l-28.18-213.42
								c-1.14-8.63,4.4-15.34,12.48-15.38l92.5,5.14c8.57,0.48,16.51,8.15,17.7,17.1l28.18,213.42
								C1539.9,1756.3,1533.89,1763.2,1525.32,1762.71z"/>
							<g>
								<path class="st4" d="M1433.37,1760.83c-9.93-0.66-19.08-9.55-20.45-19.9l-28.19-213.42c-0.68-5.18,0.61-10.01,3.64-13.61
									c2.93-3.5,7.18-5.44,11.95-5.46l92.69,5.15c0.06,0,0.13,0.01,0.2,0.01c9.94,0.66,19.08,9.54,20.44,19.9l28.19,213.42
									c0.71,5.36-0.69,10.33-3.93,13.96c-3.18,3.57-7.72,5.37-12.77,5.08l-91.57-5.12
									C1433.5,1760.83,1433.44,1760.84,1433.37,1760.83z M1492.81,1520.09c-0.04,0-0.09-0.01-0.13-0.01l-92.5-5.15
									c-2.74,0.03-5.31,1.17-7.03,3.22c-1.83,2.17-2.59,5.18-2.16,8.47l28.19,213.42c0.96,7.31,7.63,13.82,14.61,14.29
									c0.04,0,0.08,0,0.13,0.01l91.57,5.12c3.14,0.18,5.91-0.89,7.79-3.01c1.95-2.18,2.77-5.26,2.32-8.66l-28.19-213.43
									C1506.45,1527.06,1499.78,1520.56,1492.81,1520.09z"/>
							</g>
						</g>
					</g>
					<g>
						<path class="st4" d="M1477.42,1634.52c0.85,0.05,1.58-0.22,2.06-0.76c0.51-0.57,0.72-1.4,0.59-2.34l-11.11-84.13
							c-0.3-2.27-2.46-4.38-4.62-4.49l-36.38-2.02c-0.76,0.02-1.39,0.3-1.82,0.81c-0.48,0.56-0.67,1.37-0.55,2.29l11.11,84.13
							C1437.01,1630.29,1477.42,1634.52,1477.42,1634.52z"/>
					</g>
					<g>
						<g>
							<path class="st2" d="M1438.63,1562.58c1.47,5.09,6.41,8.06,11.03,6.63c4.62-1.42,7.18-6.7,5.71-11.79
								c-1.47-5.09-6.41-8.06-11.03-6.64C1439.72,1552.21,1437.16,1557.49,1438.63,1562.58z"/>
							<g>
								<path class="st4" d="M1447.04,1553.67c2.44,0.16,4.58,2.04,5.34,4.68c0.48,1.67,0.35,3.41-0.37,4.9
									c-0.69,1.42-1.84,2.44-3.24,2.87c-0.59,0.18-1.19,0.25-1.8,0.21c-2.44-0.17-4.59-2.04-5.34-4.68
									c-0.97-3.37,0.65-6.86,3.61-7.77C1445.82,1553.7,1446.43,1553.63,1447.04,1553.67L1447.04,1553.67z M1447.24,1550.46
									c-0.96-0.06-1.93,0.04-2.89,0.33c-4.63,1.43-7.18,6.71-5.72,11.8c1.16,4.03,4.5,6.73,8.13,6.97
									c0.96,0.07,1.93-0.04,2.9-0.34c4.62-1.42,7.18-6.7,5.71-11.79C1454.21,1553.4,1450.88,1550.7,1447.24,1550.46
									L1447.24,1550.46z"/>
							</g>
						</g>
					</g>
					<g>
						<g>
							<path class="st2" d="M1442.87,1590.87c1.47,5.09,6.41,8.06,11.03,6.63c4.63-1.42,7.18-6.7,5.72-11.79
								c-1.47-5.09-6.41-8.06-11.03-6.64C1443.96,1580.49,1441.4,1585.77,1442.87,1590.87z"/>
							<g>
								<path class="st4" d="M1451.28,1581.95c2.44,0.16,4.59,2.04,5.35,4.68c0.48,1.67,0.35,3.41-0.37,4.9
									c-0.69,1.42-1.84,2.44-3.24,2.87c-0.59,0.18-1.19,0.25-1.8,0.21c-2.43-0.17-4.58-2.04-5.34-4.68
									c-0.97-3.37,0.64-6.86,3.61-7.77C1450.06,1581.99,1450.67,1581.91,1451.28,1581.95L1451.28,1581.95z M1451.48,1578.74
									c-0.96-0.06-1.93,0.04-2.9,0.33c-4.62,1.43-7.18,6.71-5.71,11.8c1.16,4.03,4.5,6.73,8.13,6.97
									c0.96,0.07,1.93-0.04,2.89-0.34c4.63-1.42,7.18-6.7,5.72-11.79C1458.45,1581.68,1455.11,1578.98,1451.48,1578.74
									L1451.48,1578.74z"/>
							</g>
						</g>
					</g>
					<g>
						<g>
							<path class="st2" d="M1447.11,1619.15c1.47,5.08,6.41,8.06,11.03,6.63c4.63-1.42,7.18-6.7,5.72-11.79
								c-1.47-5.09-6.41-8.06-11.03-6.64C1448.2,1608.78,1445.64,1614.06,1447.11,1619.15z"/>
							<g>
								<path class="st4" d="M1455.52,1610.23c2.44,0.16,4.58,2.04,5.34,4.67c0.98,3.38-0.64,6.87-3.61,7.78
									c-0.59,0.18-1.19,0.25-1.8,0.21c-2.44-0.17-4.58-2.04-5.35-4.68c-0.97-3.37,0.65-6.86,3.61-7.78
									C1454.3,1610.27,1454.91,1610.2,1455.52,1610.23L1455.52,1610.23z M1455.72,1607.01c-0.95-0.06-1.93,0.04-2.89,0.34
									c-4.62,1.43-7.18,6.71-5.71,11.8c1.16,4.03,4.5,6.73,8.13,6.97c0.95,0.07,1.93-0.04,2.89-0.34
									c4.63-1.42,7.18-6.7,5.71-11.79C1462.69,1609.96,1459.36,1607.26,1455.72,1607.01L1455.72,1607.01z"/>
							</g>
						</g>
					</g>
				</g>
				<g>
					<path class="st1" d="M1867.83,1552.02c-45.06,35-108.84,103.83-180.48,196.38c-0.23,0.31-0.37,0.55-0.6,0.85
						c-1.66,2.16-3.29,4.26-4.83,6.36c-18.35,33.96,26.35,195.93,84.25,206.2c0.8,0.12,1.61,0.29,2.31,0.33l0.09-0.01
						c0.12-0.1,0.33-0.18,0.54-0.25c33.78-14.52,74.04-39.81,121.41-79.81c27.8-23.5,51.18-46.78,90.68-92.68
						c35.58-41.34,39.63-88.04,34.93-143.14C2011.32,1589.97,1919.1,1512.2,1867.83,1552.02z"/>
				</g>
				<g>
					<path class="st2" d="M1723.66,1699.49l3.66,3.36c0.57-0.66,56.91-65.92,82.68-82.78l-2.62-4.27
						C1781.03,1633.05,1725.99,1696.78,1723.66,1699.49z"/>
				</g>
				<path class="st4" d="M1703.03,1744.19c-5.44-0.97-11.17-0.08-16.3,5.04c-1.53,1.5-3,3.36-4.38,5.59
					c-0.17,0.26-0.29,0.53-0.41,0.81c-18.35,33.93,26.35,195.92,84.24,206.15c0.79,0.16,1.59,0.31,2.31,0.38l0.07-0.03
					c0.09,0.05,0.13,0.07,0.24,0.06c0.11-0.12,0.19-0.18,0.3-0.3C1860.32,1875.23,1708.65,1748.87,1703.03,1744.19z"/>
				<g>
					<path class="st12" d="M1798.22,1896.63l-72.82,66.11l-84.29-129.05l81.8-71.35C1722.9,1762.34,1797.72,1826.41,1798.22,1896.63
						z"/>
				</g>
				<g>
					<path class="st12" d="M1545.68,1715c0,0,47.63,137.12,84.91,208.52c17.08,32.71,75.99,65.42,97.5,35.62
						c0.33-0.46,18.27-23.42,25.77-53.5c11.54-46.31,1.07-95.43-32.8-128.02l-123.18-118.55L1545.68,1715z"/>
				</g>
				<g>
					<g>
						<path class="st12" d="M1502.81,1611.41c0,0,14.35-3.12,23.98-4.49c9.64-1.37,16.08,0.4,27.48,12.48
							c11.4,12.08,41.44,25.96,43.91,42.38c2.47,16.42,9.74,71.07-33.09,83.37c-42.83,12.29-108.01-20.12-84.02-36.14
							c0,0-26.49-10.31-7.07-30.74c0,0-22.04-23.07,2.85-33.44C1476.86,1644.81,1450.39,1611.18,1502.81,1611.41z"/>
					</g>
					<path class="st13" d="M1476.86,1644.81c6.03-1.54,11.99-1.82,17.97-1.82c5.97,0.13,11.93,0.57,17.93,2.27
						c-5.97,1.54-11.97,1.83-17.97,1.82C1488.8,1646.93,1482.8,1646.5,1476.86,1644.81z"/>
					<path class="st13" d="M1474.02,1678.35c8.11-1.03,16.11-0.98,24.1-0.85c8,0.24,15.91,0.64,24.02,1.59
						c-3.94,1.2-7.98,1.78-12.01,2.14c-4.04,0.38-8.08,0.4-12.11,0.35C1489.97,1681.31,1481.93,1680.53,1474.02,1678.35z"/>
					<path class="st13" d="M1480.83,1709.21c5.69,0.74,10.94,1.83,16.29,2.69c2.66,0.5,5.33,0.89,8.01,1.33
						c2.7,0.47,5.41,0.79,8.25,1.44c-5.41,2.08-11.31,2.2-16.91,1.26c-2.81-0.51-5.57-1.24-8.21-2.36
						C1485.62,1712.49,1483.06,1711.13,1480.83,1709.21z"/>
				</g>
			</g>
			<g>
				<g>
					<path class="st12" d="M1385.62,1639.88c0,0-18.28-6.82-1.54-27.53c16.74-20.7,32.08-12.04,31.18-3.35
						c-0.91,8.68-0.86,14.33-13.84,20.71c0,0,12.5,0.1,12.89,9.99c0.39,9.9-6.87,16.29-6.87,16.29s11.12-2.29,13.54,2.12
						c2.41,4.4-0.01,16.91-10.75,23.45c0,0,12.64,1.62,7,16.1c-5.64,14.47-8.51,10.34-8.51,10.34l2.9,18c0,0-23.77-3.91-19.66-32.58
						c0,0-15.79-9.28-1.46-25.57C1390.5,1667.84,1367.75,1657.3,1385.62,1639.88z"/>
				</g>
				<g>
					<path class="st2" d="M1406.71,1656.33c-1.47,0.55-2.9,1.2-4.3,1.88c-1.4,0.69-2.76,1.44-4.08,2.27
						c-1.33,0.81-2.58,1.75-3.78,2.74c-1.22,0.99-2.3,2.12-3.4,3.29c0.84-1.36,1.81-2.68,2.99-3.77c1.15-1.12,2.42-2.12,3.78-2.96
						C1400.62,1658.11,1403.6,1656.86,1406.71,1656.33z"/>
					<g>
						<path class="st13" d="M1392.26,1667.62c1.17-1.25,2.16-2.27,3.24-3.14c1.36-1.12,2.5-1.95,3.6-2.62
							c1.3-0.81,2.61-1.54,3.96-2.21c1.35-0.64,2.73-1.28,4.17-1.82l-0.78-3.07c-3.13,0.53-6.28,1.77-9.33,3.67
							c-1.41,0.87-2.77,1.93-4.04,3.15c-1.12,1.05-2.19,2.39-3.24,4.08L1392.26,1667.62z"/>
					</g>
				</g>
				<g>
					<path class="st2" d="M1408.94,1681.86c-1.47,0.56-2.9,1.21-4.3,1.88c-1.4,0.7-2.77,1.45-4.08,2.27
						c-1.33,0.81-2.58,1.75-3.78,2.75c-1.22,0.99-2.3,2.12-3.39,3.29c0.84-1.36,1.81-2.68,2.98-3.78c1.16-1.11,2.42-2.12,3.78-2.96
						C1402.85,1683.64,1405.83,1682.38,1408.94,1681.86z"/>
					<g>
						<path class="st13" d="M1394.49,1693.15c1.17-1.26,2.16-2.27,3.24-3.15c1.36-1.11,2.5-1.95,3.6-2.62
							c1.3-0.82,2.61-1.54,3.97-2.21c1.35-0.64,2.73-1.28,4.17-1.82l-0.78-3.06c-3.13,0.53-6.27,1.76-9.33,3.66
							c-1.43,0.89-2.79,1.95-4.04,3.16c-1.12,1.05-2.19,2.39-3.23,4.08L1394.49,1693.15z"/>
					</g>
				</g>
				<g>
					<path class="st2" d="M1401.42,1629.71c-1.47,0.55-2.9,1.2-4.3,1.88c-1.4,0.69-2.76,1.44-4.08,2.27
						c-1.33,0.81-2.57,1.75-3.78,2.74c-1.22,0.99-2.3,2.12-3.39,3.3c0.84-1.36,1.81-2.68,2.99-3.78c1.16-1.11,2.42-2.12,3.78-2.96
						C1395.33,1631.49,1398.31,1630.23,1401.42,1629.71z"/>
					<g>
						<path class="st13" d="M1386.97,1641c1.17-1.25,2.16-2.27,3.24-3.14c1.35-1.11,2.5-1.94,3.61-2.62
							c1.3-0.82,2.61-1.54,3.96-2.21c1.35-0.64,2.73-1.28,4.17-1.81l-0.77-3.07c-3.14,0.53-6.28,1.76-9.33,3.67
							c-1.42,0.87-2.78,1.94-4.04,3.16c-1.13,1.04-2.19,2.38-3.24,4.08L1386.97,1641z"/>
					</g>
				</g>
			</g>
		</g>
		<g>
			<path class="st1" d="M1393.97,1531.76l-3.62-4.08l-3.4-4c-2.23-2.67-4.42-5.35-6.58-8.06c-3.86-4.85-3.19-12.02,1.5-16.01
				c4.69-4,11.6-3.34,15.47,1.51c2.07,2.57,4.16,5.1,6.27,7.6l3.18,3.71l3.11,3.48l0.34,0.38c4.14,4.64,3.86,11.86-0.62,16.15
				c-4.49,4.28-11.48,3.98-15.62-0.65L1393.97,1531.76z"/>
			<path class="st1" d="M1344.61,1465.38c-7.52-11.74-14.68-23.7-21.49-35.89c-2.98-5.32-1.21-12.12,3.94-15.2
				c5.15-3.07,11.72-1.29,14.69,4.03c6.64,11.76,13.63,23.31,20.95,34.62c3.34,5.15,2,12.12-2.99,15.57
				c-4.99,3.45-11.74,2.06-15.07-3.09L1344.61,1465.38z"/>
			<path class="st1" d="M1295.4,1374.25c-5.71-12.77-11.04-25.72-15.96-38.84c-2.1-5.6,0.59-11.9,6.01-14.07
				c5.42-2.17,11.5,0.56,13.61,6.16c4.82,12.67,10.03,25.17,15.62,37.5c2.49,5.5,0.19,12.03-5.12,14.6
				c-5.32,2.57-11.64,0.2-14.13-5.29L1295.4,1374.25z"/>
			<path class="st1" d="M1260.38,1276.33c-3.67-13.56-6.9-27.25-9.66-41.04c-1.15-5.75,2.43-11.37,7.99-12.56
				c5.56-1.19,11,2.45,12.15,8.2c2.73,13.3,5.91,26.5,9.51,39.58c1.57,5.7-1.63,11.63-7.14,13.26c-5.52,1.62-11.26-1.68-12.84-7.38
				L1260.38,1276.33z"/>
			<path class="st1" d="M1241.59,1173.69c-1.35-14.02-2.22-28.1-2.58-42.18c-0.15-5.73,4.23-10.5,9.78-10.65s10.16,4.32,10.31,10.05
				c0.42,13.58,1.31,27.15,2.68,40.66c0.58,5.76-3.46,10.91-9.04,11.51c-5.57,0.6-10.56-3.58-11.15-9.34L1241.59,1173.69z"/>
			<path class="st1" d="M1240.65,1069.21c1.1-14.04,2.7-28.04,4.78-41.96c0.83-5.53,5.84-9.32,11.19-8.46
				c5.35,0.85,9.03,5.98,8.2,11.51c-1.94,13.45-3.42,26.97-4.43,40.52c-0.42,5.63-5.18,9.85-10.63,9.42
				c-5.46-0.43-9.54-5.35-9.12-10.98L1240.65,1069.21z"/>
			<path class="st1" d="M1258.06,966.23c3.68-13.61,7.95-27.08,12.87-40.31c1.89-5.09,7.43-7.64,12.36-5.68
				c4.93,1.96,7.41,7.63,5.51,12.73c-4.63,12.63-8.65,25.52-12.12,38.58c-1.41,5.32-6.73,8.45-11.88,6.99
				c-5.15-1.46-8.17-6.95-6.76-12.27L1258.06,966.23z"/>
			<path class="st1" d="M1297.14,869.29c6.95-12.28,14.63-24.15,23.03-35.47c3.14-4.22,8.99-5.02,13.08-1.78
				c4.09,3.24,4.88,9.25,1.75,13.48c-7.86,10.68-15.04,21.91-21.56,33.56c-2.6,4.65-8.37,6.24-12.87,3.55
				c-4.5-2.69-6.04-8.65-3.44-13.3L1297.14,869.29z"/>
			<path class="st1" d="M1362.08,787.91c10.51-9.32,21.7-17.85,33.47-25.43c4.26-2.74,9.86-1.4,12.51,3
				c2.66,4.4,1.39,10.16-2.87,12.9c-10.94,7.12-21.34,15.12-31.12,23.88c-3.83,3.43-9.63,3-12.95-0.95
				c-3.32-3.96-2.91-9.95,0.92-13.38L1362.08,787.91z"/>
			<path class="st1" d="M1451,735.54c13.19-4.51,26.74-7.9,40.48-10.07c4.83-0.76,9.34,2.66,10.08,7.65
				c0.74,4.99-2.54,9.64-7.37,10.41c-12.74,2.08-25.3,5.28-37.54,9.53c-4.68,1.63-9.75-0.97-11.32-5.81
				c-1.58-4.84,0.94-10.07,5.62-11.7L1451,735.54z"/>
			<path class="st1" d="M1552.86,724.03c13.84,1.56,27.57,4.44,40.91,8.67c4.54,1.44,7.1,6.41,5.7,11.1
				c-1.39,4.69-6.17,7.34-10.71,5.91c-12.29-3.83-24.96-6.42-37.75-7.8c-4.78-0.52-8.25-4.94-7.75-9.87
				c0.5-4.94,4.78-8.53,9.55-8.01L1552.86,724.03z"/>
			<path class="st1" d="M1649.35,760.21c5.77,4.1,11.34,8.51,16.65,13.25c2.65,2.37,5.24,4.8,7.77,7.32
				c2.52,2.46,4.97,5.19,7.43,7.93c3.15,3.49,2.96,8.96-0.42,12.2c-3.36,3.23-8.61,3.06-11.76-0.37l-0.29-0.32
				c-2.12-2.31-4.23-4.67-6.58-6.95c-2.31-2.28-4.68-4.49-7.11-6.63c-4.85-4.29-9.95-8.28-15.23-12l-0.02-0.01
				c-3.86-2.72-4.86-8.15-2.23-12.15c2.63-3.99,7.89-5.02,11.75-2.3L1649.35,760.21z"/>
			<path class="st1" d="M1708.29,847.59c2.32,14.68,2.04,29.62-0.24,44.06c-0.72,4.57-4.9,7.67-9.32,6.93s-7.43-5.02-6.71-9.59
				c1.97-12.87,2.12-25.97,0.06-38.62c-0.76-4.62,2.26-9,6.73-9.78c4.48-0.78,8.71,2.33,9.47,6.96L1708.29,847.59z"/>
			<path class="st1" d="M1686.47,951.64c-7.18,12.44-15.77,24.01-25.61,34.37c-3.05,3.21-8.03,3.26-11.14,0.11
				c-3.11-3.14-3.18-8.27-0.13-11.48c8.88-9.45,16.67-20.04,23.15-31.41c2.24-3.92,7.13-5.22,10.92-2.91
				c3.79,2.31,5.06,7.36,2.82,11.28L1686.47,951.64z"/>
			<path class="st1" d="M1609.42,1021.96c-13.26,5.39-27.57,8.48-41.99,8.51c-4.22,0.01-7.64-3.5-7.66-7.86
				c-0.02-4.34,3.38-7.87,7.58-7.91c12.39-0.09,24.75-2.8,36.39-7.6c3.96-1.63,8.46,0.36,10.05,4.46c1.58,4.1-0.35,8.74-4.31,10.38
				l-0.03,0.01L1609.42,1021.96z"/>
			<path class="st1" d="M1507.28,1012.41c-12.11-7.66-22.87-17.17-32.44-27.62c-2.81-3.06-2.67-7.89,0.29-10.79
				c2.97-2.9,7.62-2.78,10.43,0.28c8.88,9.6,18.71,18.16,29.5,24.92c3.54,2.21,4.67,6.96,2.53,10.62
				c-2.14,3.66-6.74,4.83-10.28,2.62L1507.28,1012.41z"/>
			<path class="st1" d="M1439.25,933.71c-3.17-6.26-6.55-12.41-9.52-18.77c-3-6.35-5.82-12.8-8.44-19.34
				c-1.51-3.77,0.22-8.08,3.87-9.64c3.65-1.56,7.81,0.21,9.32,3.97c2.53,6.23,5.26,12.39,8.16,18.46
				c2.88,6.09,6.16,11.96,9.22,17.95l0.21,0.42c1.87,3.65,0.51,8.18-3.03,10.1c-3.54,1.93-7.92,0.52-9.78-3.13L1439.25,933.71z"/>
			<path class="st1" d="M1404.12,835.44c-2.36-14.03-3.58-28.31-3.49-42.6c0.03-3.94,3.13-7.11,6.95-7.08
				c3.81,0.03,6.88,3.21,6.86,7.14c-0.02,13.4,1.18,26.8,3.47,40.02c0.68,3.93-1.85,7.69-5.66,8.39c-3.8,0.71-7.44-1.91-8.12-5.84
				L1404.12,835.44z"/>
			<path class="st1" d="M1409.73,730.49c4.01-13.68,9.32-26.94,15.74-39.56c1.71-3.37,5.73-4.66,8.99-2.89
				c3.26,1.76,4.52,5.89,2.82,9.25c-5.99,11.92-10.9,24.38-14.6,37.21c-1.06,3.69-4.82,5.8-8.4,4.7c-3.58-1.1-5.62-4.98-4.55-8.68
				L1409.73,730.49z"/>
			<path class="st1" d="M1460.22,639.49c9.13-10.59,18.99-20.44,29.4-29.6c2.7-2.37,6.74-2.04,9.04,0.75
				c2.29,2.79,1.99,6.95-0.7,9.32c-9.95,8.84-19.34,18.32-27.99,28.45c-2.38,2.79-6.49,3.05-9.19,0.6c-2.7-2.45-2.96-6.71-0.58-9.49
				L1460.22,639.49z"/>
			<path class="st1" d="M1538.76,573.81c11.7-7.18,23.74-13.74,36.03-19.72c3.08-1.5,6.76-0.13,8.21,3.05s0.16,6.97-2.93,8.47
				c-11.92,5.88-23.58,12.3-34.88,19.32c-2.97,1.84-6.82,0.85-8.6-2.21c-1.78-3.06-0.82-7.04,2.14-8.89L1538.76,573.81z"/>
			<path class="st1" d="M1630.57,531.28c12.88-4.37,25.91-8.21,39.05-11.58c3.18-0.81,6.39,1.19,7.17,4.47
				c0.79,3.28-1.12,6.6-4.3,7.41c-12.85,3.36-25.58,7.19-38.14,11.52c-3.16,1.09-6.57-0.67-7.62-3.94
				c-1.05-3.26,0.65-6.78,3.81-7.87L1630.57,531.28z"/>
			<path class="st1" d="M1728.35,507.9c13.39-1.99,26.83-3.53,40.3-4.64c3.13-0.26,5.87,2.15,6.12,5.38
				c0.25,3.23-2.06,6.06-5.19,6.31c-13.23,1.16-26.43,2.74-39.55,4.76c-3.16,0.48-6.1-1.76-6.57-5.03c-0.47-3.26,1.71-6.3,4.87-6.79
				L1728.35,507.9z"/>
			<path class="st1" d="M1828.37,501.11c13.51,0.13,27,0.68,40.48,1.62c3,0.21,5.26,2.89,5.06,5.99c-0.21,3.1-2.77,5.44-5.77,5.23
				c-13.27-0.86-26.56-1.33-39.84-1.39c-3.06-0.02-5.52-2.59-5.51-5.75c0.01-3.16,2.5-5.71,5.56-5.7H1828.37z"/>
			<path class="st1" d="M1928.2,509.52c13.34,2.12,26.62,4.63,39.82,7.52c2.81,0.62,4.6,3.46,4,6.36c-0.6,2.9-3.33,4.76-6.14,4.14
				c-13.02-2.79-26.12-5.19-39.27-7.21c-2.89-0.45-4.89-3.23-4.46-6.21c0.43-2.98,3.12-5.05,6.01-4.6L1928.2,509.52z"/>
			<path class="st1" d="M2025.85,532.35c12.92,4.02,25.72,8.42,38.4,13.19c2.57,0.97,3.89,3.9,2.96,6.56
				c-0.94,2.65-3.76,4.03-6.32,3.06c-12.53-4.64-25.17-8.92-37.92-12.82c-2.68-0.82-4.21-3.72-3.41-6.48
				c0.79-2.76,3.6-4.34,6.28-3.52L2025.85,532.35z"/>
			<path class="st1" d="M2119.41,569.06l36.28,17.83l0.1,0.06c2.35,1.16,3.35,4.06,2.23,6.48c-1.12,2.43-3.91,3.47-6.26,2.31
				l-36.38-17.66l-0.09-0.05c-2.4-1.16-3.44-4.12-2.31-6.6c1.13-2.48,3.99-3.55,6.39-2.38L2119.41,569.06z"/>
			<path class="st1" d="M2210.03,610.54c12.45,4.91,25.01,9.5,37.68,13.75c2.35,0.78,3.63,3.39,2.87,5.81
				c-0.76,2.42-3.26,3.76-5.61,2.97c-12.84-4.23-25.57-8.81-38.18-13.71c-2.36-0.91-3.55-3.64-2.66-6.07
				c0.88-2.44,3.52-3.67,5.88-2.75L2210.03,610.54z"/>
			<path class="st1" d="M2304.43,640.62c12.96,3.11,26.02,5.79,39.15,8.01c2.3,0.39,3.86,2.63,3.49,5.01
				c-0.38,2.38-2.53,4-4.84,3.61c-13.33-2.18-26.58-4.84-39.73-7.93c-2.33-0.54-3.79-2.94-3.26-5.34c0.53-2.41,2.85-3.91,5.18-3.37
				L2304.43,640.62z"/>
			<path class="st1" d="M2402.02,655.21c13.27,0.72,26.57,0.9,39.84,0.48c2.2-0.07,4.04,1.72,4.11,3.99
				c0.07,2.27-1.64,4.17-3.84,4.24c-13.5,0.49-27.02,0.38-40.51-0.28c-2.25-0.11-4-2.09-3.89-4.41c0.11-2.33,2.02-4.12,4.27-4.01
				H2402.02z"/>
			<path class="st1" d="M2500.29,649.82c13.09-2.27,26.07-5.19,38.88-8.79c2-0.56,4.06,0.65,4.6,2.72c0.55,2.06-0.62,4.18-2.61,4.75
				c-13.03,3.73-26.25,6.78-39.58,9.15c-2.09,0.37-4.08-1.07-4.44-3.24c-0.36-2.16,1.04-4.21,3.13-4.59L2500.29,649.82z"/>
			<path class="st1" d="M2594.39,620.62c12.09-5.63,23.88-11.96,35.27-18.97c1.67-1.02,3.81-0.46,4.81,1.25
				c0.99,1.72,0.46,3.93-1.2,4.96c-11.59,7.22-23.59,13.73-35.9,19.54c-1.81,0.85-3.95,0.03-4.77-1.84
				c-0.83-1.87-0.03-4.08,1.78-4.93L2594.39,620.62z"/>
			<path class="st1" d="M2676.94,565.96c2.42-2.26,4.8-4.58,7.12-6.94l3.41-3.59c1.11-1.19,2.25-2.47,3.21-3.63l0.05-0.06
				c1.19-1.44,3.28-1.6,4.67-0.37c1.39,1.23,1.56,3.38,0.37,4.81c-1.19,1.44-2.3,2.68-3.47,3.97l-3.54,3.75
				c-2.39,2.46-4.82,4.85-7.3,7.19c-1.37,1.29-3.5,1.19-4.75-0.22c-1.26-1.42-1.16-3.61,0.21-4.91L2676.94,565.96z"/>
		</g>
		<g>
			<g>
				<polygon class="st1" points="2688.68,632.68 2951,391.47 2690.52,567.12 				"/>
				<g>
					<polygon class="st1" points="2572.71,536.66 2660.16,554.75 2951.85,389.68 					"/>
				</g>
				<g>
					<polygon class="st1" points="2861.1,591.44 2951.85,389.68 2690.52,567.12 					"/>
				</g>
				<g>
					<polygon class="st2" points="2688.68,632.68 2690.52,567.12 2951.85,389.68 2660.16,554.75 					"/>
				</g>
			</g>
			<polygon class="st4" points="2868.37,575.28 2751.45,526.03 2779.52,487.2 2637.45,521.92 2666.22,552.13 2688.68,632.68 
				2690.52,567.12 2861.1,591.44 			"/>
		</g>
		<g>
			<g>
				<g>
					<g>
						<path class="st9" d="M1330.82,1428.4c-48.41,2.72-98.53-34.95-119.97-94.51c-21.29-59.16-7.49-121.06,30.29-151.88l-1.51-4.17
							l25.48-9.79c55.27-21.23,120.61,18.6,145.93,88.96c25.32,70.35,1.03,144.61-54.24,165.84l-24.33,10.08L1330.82,1428.4z"/>
						<g>
							<g>
								<path class="st4" d="M1331.94,1434.19l-1.74-4.79c-49.85,2.4-99.13-36.62-120.21-95.18c-20.87-58-8.5-120.6,30.06-152.54
									l-1.6-4.41l26.35-10.12c27-10.37,57.18-6.74,84.99,10.21c27.74,16.91,49.81,45.08,62.13,79.32
									c12.32,34.23,13.42,70.45,3.11,101.98c-10.34,31.61-30.9,54.72-57.9,65.09L1331.94,1434.19z M1331.45,1427.42l1.56,4.27
									l23.44-9.72c26.49-10.17,46.66-32.87,56.81-63.91c10.18-31.12,9.08-66.88-3.09-100.7c-12.17-33.82-33.95-61.64-61.33-78.34
									c-27.32-16.65-56.94-20.22-83.4-10.06l-24.61,9.45l1.43,3.92l-0.53,0.43c-38.35,31.3-50.68,93.31-30,150.8
									c20.9,58.04,69.87,96.68,119.05,93.9L1331.45,1427.42z"/>
							</g>
						</g>
					</g>
				</g>
				<g>
					<path class="st2" d="M1185.38,1343.67c25.31,70.36,91.81,110.49,147.09,89.26c55.28-21.23,78.41-95.77,53.1-166.14
						c-25.32-70.36-90.66-110.18-145.94-88.96C1184.36,1199.07,1160.06,1273.32,1185.38,1343.67z"/>
				</g>
				<g>
					<g>
						<path class="st9" d="M1203.28,1336.87c20.8,57.79,75.41,90.75,120.81,73.31c45.42-17.44,64.42-78.66,43.62-136.45
							c-20.8-57.79-74.47-90.5-119.87-73.07C1202.44,1218.09,1182.48,1279.08,1203.28,1336.87z"/>
						<g>
							<g>
								<path class="st4" d="M1298.63,1415.84c-14.84,0-30.1-4.47-44.64-13.28c-23.14-14.02-41.46-37.23-51.58-65.36l0,0
									c-10.13-28.15-11.04-57.94-2.55-83.88c8.51-26.01,25.43-45.03,47.66-53.57c45.81-17.58,100.11,15.44,121.06,73.63
									c10.16,28.25,11.24,58.07,3.03,83.98c-8.27,26.12-25.03,45.19-47.19,53.7C1316.13,1414.26,1307.45,1415.84,1298.63,1415.84z
									 M1204.15,1336.54c9.98,27.71,28.01,50.58,50.78,64.38c22.68,13.74,47.13,16.71,68.83,8.37
									c21.62-8.3,37.99-26.95,46.08-52.49c8.08-25.5,7.01-54.88-3.01-82.72c-20.59-57.2-73.83-89.73-118.67-72.5
									c-21.69,8.33-38.23,26.93-46.55,52.38C1193.27,1279.46,1194.17,1308.8,1204.15,1336.54z"/>
							</g>
						</g>
					</g>
				</g>
				<g>
					<g>
						<path class="st2" d="M1303.09,1256.05c2.95,1.54,5.63,3.41,8.06,5.6c2.42,2.2,4.43,4.72,6.04,7.57
							c1.6,2.84,2.71,6.03,3.32,9.55c0.6,3.54,0.58,7.37-0.08,11.52l-11.23-4c-0.02-4.44-0.81-8.21-2.39-11.31
							c-1.58-3.1-4.08-5.63-7.5-7.61l-10.82,32.37c1.92,1.81,3.83,3.62,5.71,5.44c1.88,1.82,3.63,3.68,5.27,5.6
							c1.63,1.93,3.08,3.9,4.35,5.92c1.26,2.03,2.25,4.16,2.95,6.38c0.71,2.23,1.04,4.55,1.05,6.95c0,2.4-0.44,4.92-1.32,7.55
							c-1.46,4.39-3.54,7.91-6.21,10.56c-2.68,2.66-5.67,4.63-9,5.93c-3.34,1.3-6.84,1.98-10.54,2.05
							c-3.69,0.07-7.28-0.29-10.73-1.09l-5.41,16.19l-11.36-4.06l5.5-16.47c-3.12-1.97-5.82-4.41-8.13-7.35
							c-2.31-2.93-4.16-6.2-5.53-9.79c-1.39-3.59-2.29-7.44-2.67-11.53c-0.39-4.09-0.21-8.27,0.54-12.55l11.92,4.26
							c-0.4,2.57-0.53,5.11-0.4,7.59c0.13,2.47,0.52,4.8,1.16,6.98c0.64,2.18,1.55,4.18,2.73,5.98c1.19,1.82,2.61,3.37,4.3,4.67
							l11.75-35.16c-2.66-2.56-5.2-5.16-7.56-7.79c-2.38-2.64-4.36-5.42-5.94-8.33c-1.58-2.92-2.61-5.99-3.06-9.19
							c-0.45-3.2-0.06-6.68,1.19-10.39c1.1-3.3,2.76-6.12,4.99-8.45c2.23-2.32,4.81-4.17,7.74-5.53c2.95-1.36,6.12-2.21,9.54-2.57
							c3.43-0.35,6.9-0.2,10.4,0.47l3.47-10.39l11.36,4.04L1303.09,1256.05z M1270.97,1271.85c-0.57,1.71-0.78,3.39-0.63,5.01
							c0.15,1.63,0.58,3.25,1.29,4.84c0.71,1.59,1.66,3.16,2.87,4.75c1.21,1.58,2.58,3.15,4.12,4.73l9.26-27.72
							c-4.31-0.73-7.94-0.3-10.9,1.28C1274.02,1266.33,1272.02,1268.7,1270.97,1271.85z M1294.61,1333.66
							c0.57-1.73,0.68-3.47,0.31-5.23c-0.37-1.75-1.06-3.54-2.1-5.35c-1.02-1.81-2.28-3.6-3.79-5.36c-1.51-1.77-3.12-3.5-4.83-5.17
							l-10.44,31.22c2.52,0.53,4.9,0.65,7.14,0.38c2.23-0.27,4.27-0.86,6.09-1.75c1.83-0.9,3.39-2.1,4.69-3.59
							C1292.99,1337.34,1293.96,1335.61,1294.61,1333.66z"/>
					</g>
				</g>
			</g>
		</g>
		<g>
			<g>
				<g>
					<g>
						<path class="st9" d="M1705.71,910.32c-26.31,1.48-53.55-19-65.21-51.37c-11.57-32.15-4.07-65.8,16.46-82.55l-0.82-2.27
							l13.85-5.32c30.04-11.54,65.56,10.11,79.32,48.36c13.76,38.24,0.56,78.6-29.49,90.14l-13.22,5.48L1705.71,910.32z"/>
						<g>
							<g>
								<path class="st4" d="M1706.32,913.46l-0.95-2.6c-27.09,1.31-53.88-19.9-65.34-51.73c-11.34-31.52-4.62-65.55,16.33-82.91
									l-0.87-2.4l14.32-5.5c30.26-11.62,66.13,10.21,79.97,48.66c13.83,38.45,0.48,79.19-29.78,90.81L1706.32,913.46z
									 M1706.05,909.78l0.84,2.32l12.74-5.28c29.75-11.43,42.84-51.57,29.2-89.48c-13.65-37.91-48.94-59.48-78.67-48.05
									l-13.38,5.14l0.78,2.13l-0.29,0.24c-20.84,17.01-27.55,50.71-16.31,81.96c11.36,31.55,38.01,52.51,64.71,51.04
									L1706.05,909.78z"/>
							</g>
						</g>
					</g>
				</g>
				<g>
					<path class="st2" d="M1626.66,864.27c13.76,38.25,49.9,60.05,79.95,48.52c30.04-11.54,42.62-52.05,28.86-90.3
						c-13.76-38.25-49.27-59.89-79.32-48.35C1626.1,785.67,1612.9,826.02,1626.66,864.27z"/>
				</g>
				<g>
					<g>
						<path class="st9" d="M1636.39,860.57c11.3,31.41,40.99,49.33,65.66,39.85c24.68-9.48,35.01-42.76,23.71-74.17
							c-11.31-31.41-40.48-49.19-65.15-39.71C1635.93,796.01,1625.09,829.16,1636.39,860.57z"/>
						<g>
							<g>
								<path class="st4" d="M1688.21,903.49c-8.07,0-16.36-2.43-24.26-7.22c-12.57-7.62-22.53-20.23-28.03-35.52l0,0
									c-5.51-15.3-6-31.49-1.39-45.59c4.62-14.13,13.82-24.47,25.9-29.11c24.9-9.56,54.41,8.4,65.8,40.02
									c5.52,15.35,6.11,31.57,1.65,45.65c-4.5,14.19-13.61,24.56-25.65,29.18C1697.72,902.63,1693.01,903.49,1688.21,903.49z
									 M1674.37,784.51c-4.59,0-9.16,0.81-13.58,2.51c-11.79,4.53-20.78,14.64-25.3,28.47c-4.54,13.87-4.05,29.81,1.38,44.89l0,0
									c5.42,15.06,15.22,27.49,27.6,34.99c12.32,7.46,25.62,9.09,37.41,4.54c11.75-4.51,20.65-14.64,25.05-28.53
									c4.39-13.86,3.81-29.83-1.63-44.96C1716.13,800.98,1695.07,784.51,1674.37,784.51z"/>
							</g>
						</g>
					</g>
				</g>
				<g>
					<g>
						<path class="st2" d="M1690.64,816.64c1.6,0.84,3.06,1.85,4.38,3.04c1.31,1.2,2.41,2.56,3.28,4.11
							c0.87,1.54,1.47,3.27,1.8,5.19c0.33,1.92,0.32,4.01-0.04,6.26l-6.1-2.17c-0.01-2.41-0.44-4.46-1.3-6.15
							c-0.86-1.69-2.22-3.06-4.08-4.14l-5.88,17.59c1.05,0.98,2.09,1.97,3.1,2.96c1.03,0.99,1.97,2,2.86,3.04
							c0.89,1.04,1.68,2.12,2.36,3.22c0.68,1.1,1.22,2.26,1.6,3.47c0.38,1.21,0.57,2.47,0.57,3.78c0,1.31-0.24,2.67-0.72,4.1
							c-0.8,2.39-1.92,4.3-3.38,5.74c-1.45,1.45-3.08,2.52-4.89,3.23c-1.81,0.7-3.72,1.07-5.73,1.11c-2.01,0.04-3.96-0.16-5.83-0.6
							l-2.94,8.8l-6.17-2.2l2.99-8.95c-1.7-1.07-3.17-2.4-4.42-3.99c-1.25-1.59-2.26-3.37-3.01-5.32c-0.76-1.95-1.24-4.04-1.45-6.27
							c-0.21-2.22-0.12-4.5,0.29-6.82l6.48,2.32c-0.22,1.4-0.29,2.78-0.22,4.12c0.07,1.34,0.28,2.61,0.63,3.8
							c0.34,1.19,0.84,2.27,1.48,3.25c0.64,0.99,1.42,1.83,2.34,2.54l6.39-19.11c-1.45-1.39-2.83-2.81-4.11-4.24
							c-1.3-1.43-2.37-2.94-3.23-4.53c-0.86-1.59-1.42-3.25-1.66-4.99c-0.24-1.74-0.03-3.63,0.65-5.64c0.6-1.79,1.5-3.33,2.71-4.6
							c1.21-1.26,2.62-2.26,4.21-3c1.6-0.74,3.33-1.2,5.19-1.4c1.87-0.19,3.75-0.11,5.65,0.25l1.88-5.64l6.18,2.2L1690.64,816.64z
							 M1673.18,825.23c-0.31,0.93-0.43,1.84-0.34,2.72c0.08,0.89,0.32,1.76,0.7,2.63c0.38,0.86,0.9,1.72,1.56,2.58
							c0.66,0.86,1.4,1.71,2.24,2.57l5.04-15.07c-2.34-0.4-4.31-0.16-5.92,0.7C1674.84,822.23,1673.75,823.52,1673.18,825.23z
							 M1686.03,858.82c0.31-0.94,0.37-1.88,0.17-2.84c-0.2-0.95-0.58-1.93-1.14-2.91c-0.55-0.98-1.24-1.96-2.06-2.91
							c-0.82-0.96-1.69-1.9-2.62-2.81l-5.67,16.97c1.37,0.28,2.66,0.35,3.88,0.21c1.21-0.15,2.32-0.47,3.31-0.95
							c0.99-0.49,1.84-1.14,2.55-1.95C1685.15,860.82,1685.68,859.89,1686.03,858.82z"/>
					</g>
				</g>
			</g>
		</g>
		<g>
			<g>
				<g>
					<g>
						<path class="st9" d="M2234.15,659.27c-14.38-8.06-22.32-28.05-18.29-49.08c4.01-20.89,18.57-36.16,34.71-38.11l0.28-1.47
							l9,1.85c19.52,4,31.47,27.38,26.7,52.23c-4.77,24.84-24.46,41.74-43.98,37.74l-8.72-1.55L2234.15,659.27z"/>
						<g>
							<g>
								<path class="st4" d="M2248.37,663.34c-1.96,0-3.92-0.2-5.87-0.6l-9.02-1.6l0.32-1.69c-14.71-8.4-22.21-28.64-18.24-49.32
									c3.93-20.48,18.2-36.21,34.75-38.34l0.29-1.56l0.31,0.06l9,1.84c9.54,1.95,17.59,8.51,22.68,18.47
									c5.08,9.93,6.59,22.06,4.27,34.15c-2.32,12.09-8.2,22.7-16.56,29.87C2263.62,660.34,2256.01,663.34,2248.37,663.34z
									 M2234.22,660.61l8.41,1.49c9.35,1.92,19.03-0.92,27.27-7.99c8.25-7.08,14.06-17.56,16.35-29.5
									c2.29-11.94,0.8-23.92-4.21-33.72c-5-9.78-12.9-16.21-22.24-18.13l-8.69-1.78l-0.26,1.39l-0.23,0.03
									c-16.38,1.99-30.54,17.55-34.44,37.85c-3.93,20.5,3.52,40.54,18.13,48.73l0.2,0.11L2234.22,660.61z"/>
							</g>
						</g>
					</g>
				</g>
				<g>
					<path class="st2" d="M2206.87,608.35c-4.77,24.85,7.47,48.53,26.99,52.53c19.52,4,38.93-13.19,43.7-38.04
						c4.77-24.84-7.19-48.23-26.71-52.23C2231.33,566.6,2211.64,583.5,2206.87,608.35z"/>
				</g>
				<g>
					<g>
						<path class="st9" d="M2213.18,609.66c-3.92,20.41,6.13,39.86,22.16,43.14c16.04,3.29,31.98-10.83,35.9-31.24
							c3.92-20.41-5.9-39.61-21.93-42.9C2233.27,575.38,2217.1,589.25,2213.18,609.66z"/>
						<g>
							<g>
								<path class="st4" d="M2240.04,653.6c-1.59,0-3.18-0.16-4.76-0.48c-7.85-1.61-14.53-7.04-18.78-15.31
									c-4.25-8.26-5.54-18.27-3.63-28.21l0,0c1.91-9.94,6.75-18.67,13.63-24.57c6.9-5.92,15.01-8.29,22.87-6.68
									c16.17,3.32,26.12,22.73,22.17,43.28c-1.91,9.97-6.71,18.74-13.51,24.69C2252.57,651.1,2246.32,653.6,2240.04,653.6z
									 M2213.18,609.66l0.31,0.07c-1.88,9.79-0.61,19.65,3.57,27.78c4.16,8.09,10.68,13.41,18.35,14.98
									c7.63,1.58,15.53-0.8,22.23-6.66c6.69-5.85,11.41-14.49,13.3-24.32c3.88-20.2-5.85-39.27-21.69-42.52
									c-7.67-1.58-15.6,0.75-22.34,6.55c-6.77,5.81-11.54,14.4-13.42,24.2L2213.18,609.66z"/>
							</g>
						</g>
					</g>
				</g>
				<g>
					<g>
						<path class="st2" d="M2255.7,604.67c0.59,0.98,1.04,2.01,1.35,3.08c0.32,1.07,0.47,2.17,0.44,3.28
							c-0.03,1.11-0.25,2.23-0.68,3.35c-0.43,1.13-1.09,2.22-1.99,3.29l-2.54-3.2c0.76-1.28,1.18-2.51,1.25-3.69
							c0.08-1.18-0.2-2.36-0.85-3.56l-8.65,7.32c0.24,0.87,0.48,1.74,0.7,2.61c0.23,0.87,0.42,1.72,0.56,2.57
							c0.14,0.85,0.21,1.68,0.23,2.49c0.01,0.81-0.06,1.61-0.25,2.38c-0.18,0.77-0.48,1.5-0.89,2.19c-0.42,0.69-0.97,1.33-1.67,1.93
							c-1.17,0.99-2.37,1.63-3.59,1.9c-1.22,0.28-2.42,0.29-3.6,0.06c-1.18-0.24-2.3-0.68-3.38-1.34s-2.04-1.41-2.89-2.28
							l-4.33,3.66l-2.57-3.24l4.4-3.73c-0.56-1.14-0.92-2.33-1.07-3.6c-0.16-1.26-0.14-2.54,0.08-3.82c0.21-1.29,0.61-2.55,1.2-3.8
							c0.59-1.25,1.35-2.42,2.3-3.51l2.7,3.4c-0.55,0.67-1.03,1.37-1.41,2.11c-0.38,0.73-0.67,1.47-0.87,2.22
							c-0.19,0.74-0.27,1.48-0.23,2.22c0.03,0.74,0.18,1.44,0.44,2.13l9.39-7.96c-0.33-1.22-0.61-2.43-0.84-3.62
							c-0.23-1.19-0.33-2.35-0.28-3.48c0.05-1.13,0.27-2.2,0.69-3.2c0.42-1,1.13-1.93,2.12-2.77c0.88-0.75,1.84-1.25,2.88-1.52
							c1.04-0.26,2.09-0.32,3.17-0.18c1.07,0.15,2.14,0.48,3.18,1.01c1.04,0.53,2.01,1.2,2.9,2.04l2.78-2.35l2.57,3.24
							L2255.7,604.67z M2243.76,603.35c-0.46,0.39-0.81,0.83-1.04,1.33c-0.24,0.49-0.39,1.04-0.46,1.62
							c-0.07,0.59-0.07,1.21,0.01,1.89c0.07,0.68,0.2,1.38,0.37,2.11l7.41-6.27c-1.11-1-2.23-1.54-3.35-1.62
							C2245.59,602.32,2244.6,602.63,2243.76,603.35z M2239.97,625.43c0.46-0.39,0.79-0.87,0.98-1.45c0.2-0.57,0.3-1.21,0.31-1.92
							c0.02-0.71-0.04-1.45-0.17-2.23c-0.13-0.78-0.3-1.57-0.51-2.37l-8.34,7.06c0.63,0.61,1.29,1.08,1.99,1.41
							c0.69,0.33,1.37,0.53,2.05,0.61c0.68,0.07,1.33,0.02,1.96-0.17C2238.87,626.19,2239.45,625.87,2239.97,625.43z"/>
					</g>
				</g>
			</g>
		</g>
		<g>
			<g>
				<g>
					<g>
						<path class="st9" d="M1264.87,1002.14c35.23,1.98,71.7-25.43,87.3-68.78c15.49-43.05,5.46-88.1-22.04-110.53l1.1-3.03
							l-18.54-7.12c-40.22-15.45-87.77,13.54-106.19,64.74c-18.43,51.2-0.75,105.23,39.48,120.69l17.7,7.33L1264.87,1002.14z"/>
						<g>
							<g>
								<path class="st4" d="M1264.06,1006.34l-18.34-7.6c-40.5-15.56-58.39-70.1-39.86-121.58c8.97-24.92,25.02-45.41,45.22-57.72
									c20.23-12.33,42.2-14.98,61.85-7.43l19.18,7.37l-1.17,3.21c28.06,23.24,37.06,68.8,21.87,111
									c-15.34,42.62-51.33,71.01-87.48,69.26L1264.06,1006.34z M1290.14,809.2c-12.8,0-25.91,3.85-38.37,11.45
									c-19.93,12.15-35.78,32.39-44.64,57.01c-18.27,50.76-0.74,104.49,39.08,119.79l17.08,7.08l1.13-3.11l0.49,0.03
									c35.78,1.97,71.43-26.09,86.63-68.33c15.06-41.84,6.08-86.97-21.83-109.74l-0.39-0.32l1.04-2.85l-17.91-6.88
									C1305.27,810.57,1297.76,809.2,1290.14,809.2z"/>
							</g>
						</g>
					</g>
				</g>
				<g>
					<path class="st2" d="M1370.72,940.47c-18.42,51.21-66.82,80.41-107.04,64.96c-40.22-15.45-57.06-69.7-38.64-120.9
						c18.43-51.2,65.98-80.18,106.2-64.74C1371.46,835.24,1389.14,889.27,1370.72,940.47z"/>
				</g>
				<g>
					<g>
						<path class="st9" d="M1357.69,935.52c-15.14,42.05-54.88,66.04-87.91,53.35c-33.05-12.69-46.88-57.24-31.74-99.3
							c15.13-42.05,54.19-65.86,87.23-53.17C1358.3,849.09,1372.82,893.47,1357.69,935.52z"/>
						<g>
							<g>
								<path class="st4" d="M1288.3,992.99c-6.42,0-12.73-1.15-18.77-3.47c-16.13-6.19-28.32-20.07-34.34-39.08
									c-5.98-18.86-5.19-40.56,2.2-61.12c15.24-42.35,54.76-66.39,88.1-53.58c16.18,6.21,28.49,20.05,34.68,38.98
									c6.17,18.88,5.51,40.55-1.86,61.04c-7.37,20.47-20.7,37.36-37.54,47.56C1310.21,989.74,1299.1,992.99,1288.3,992.99z
									 M1306.84,833.69c-27.73,0-55.91,22.04-68.18,56.12c-7.29,20.26-8.07,41.64-2.19,60.2c5.89,18.59,17.8,32.16,33.53,38.2
									c15.79,6.07,33.59,3.91,50.09-6.09c16.57-10.04,29.69-26.68,36.95-46.85l0.63,0.24l-0.63-0.24
									c7.27-20.19,7.92-41.54,1.85-60.11c-6.06-18.52-18.09-32.06-33.87-38.12C1319.11,834.78,1312.98,833.69,1306.84,833.69z"/>
							</g>
						</g>
					</g>
				</g>
				<g>
					<g>
						<path class="st2" d="M1316.36,876.71c2.15,1.12,4.1,2.48,5.87,4.08c1.76,1.6,3.23,3.43,4.4,5.51
							c1.17,2.07,1.98,4.38,2.42,6.95c0.44,2.57,0.42,5.36-0.06,8.38l-8.17-2.91c-0.01-3.23-0.59-5.98-1.74-8.23
							c-1.15-2.26-2.97-4.1-5.46-5.54l-7.87,23.55c1.4,1.32,2.79,2.64,4.15,3.96c1.37,1.32,2.64,2.68,3.83,4.07
							c1.19,1.4,2.25,2.84,3.16,4.31c0.91,1.47,1.63,3.02,2.15,4.64s0.76,3.31,0.77,5.06c0,1.75-0.32,3.58-0.96,5.49
							c-1.07,3.2-2.58,5.76-4.52,7.69c-1.95,1.94-4.13,3.37-6.55,4.32c-2.43,0.94-4.98,1.44-7.67,1.49c-2.69,0.05-5.3-0.22-7.81-0.8
							l-3.94,11.78l-8.27-2.95l4-11.99c-2.27-1.43-4.24-3.21-5.92-5.35c-1.68-2.13-3.02-4.51-4.03-7.12
							c-1.01-2.61-1.66-5.41-1.94-8.39c-0.28-2.98-0.15-6.02,0.4-9.13l8.68,3.1c-0.29,1.88-0.39,3.72-0.29,5.52
							c0.1,1.8,0.38,3.49,0.84,5.08c0.47,1.59,1.13,3.04,1.99,4.36c0.86,1.32,1.9,2.45,3.13,3.4l8.55-25.59
							c-1.94-1.87-3.78-3.76-5.5-5.67c-1.73-1.92-3.17-3.94-4.33-6.06c-1.15-2.13-1.9-4.36-2.23-6.69
							c-0.33-2.33-0.04-4.86,0.87-7.56c0.8-2.4,2.01-4.45,3.63-6.15c1.62-1.69,3.5-3.03,5.63-4.02c2.14-0.99,4.45-1.61,6.95-1.87
							c2.5-0.25,5.02-0.14,7.57,0.34l2.53-7.56l8.27,2.94L1316.36,876.71z M1292.98,888.21c-0.42,1.24-0.57,2.46-0.46,3.65
							c0.11,1.19,0.42,2.36,0.94,3.52c0.52,1.16,1.21,2.3,2.09,3.45c0.88,1.15,1.88,2.29,3,3.44l6.74-20.18
							c-3.13-0.53-5.77-0.22-7.93,0.93C1295.21,884.19,1293.75,885.91,1292.98,888.21z M1310.19,933.19
							c0.42-1.26,0.5-2.52,0.23-3.81c-0.27-1.28-0.77-2.58-1.53-3.89c-0.74-1.32-1.66-2.62-2.76-3.9c-1.1-1.29-2.27-2.54-3.52-3.76
							l-7.59,22.72c1.83,0.38,3.56,0.47,5.19,0.28c1.63-0.2,3.11-0.62,4.43-1.27c1.33-0.66,2.47-1.53,3.41-2.61
							C1309.01,935.86,1309.72,934.61,1310.19,933.19z"/>
					</g>
				</g>
			</g>
		</g>
		<g>
			<g>
				<g>
					<g>
						<path class="st9" d="M1710.79,571.81c17.97-11.05,27.14-37,20.95-63.65c-6.16-26.47-25.5-45.21-46.21-46.86l-0.43-1.87
							l-11.4,2.83c-24.73,6.13-38.85,36.63-31.53,68.11c7.31,31.48,33.3,52.03,58.04,45.9l11.05-2.44L1710.79,571.81z"/>
						<g>
							<g>
								<path class="st4" d="M1691.3,577.79c-9.24,0-18.54-3.42-26.88-10.02c-11.04-8.72-19.07-21.97-22.63-37.29
									c-3.56-15.32-2.22-30.89,3.78-43.84c6.01-12.98,15.97-21.78,28.05-24.78l11.79-2.92l0.45,1.98
									c21.24,1.86,40.24,21.19,46.28,47.14c6.09,26.21-2.49,52.45-20.88,63.95l0.49,2.15l-11.46,2.53
									C1697.32,577.42,1694.31,577.79,1691.3,577.79z M1684.8,459.94l-11.01,2.73c-11.85,2.94-21.62,11.58-27.52,24.33
									c-5.92,12.78-7.24,28.15-3.72,43.29c3.52,15.13,11.45,28.21,22.34,36.83c10.87,8.59,23.37,11.7,35.21,8.77l10.66-2.35
									l-0.44-1.91l0.25-0.15c18.26-11.24,26.8-37.23,20.76-63.2c-5.98-25.73-24.84-44.86-45.85-46.54l-0.29-0.02L1684.8,459.94z"
									/>
							</g>
						</g>
					</g>
				</g>
				<g>
					<path class="st2" d="M1743.14,505.33c7.32,31.48-7.15,62.37-31.88,68.51c-24.73,6.14-50.37-14.8-57.7-46.29
						c-7.32-31.48,6.8-61.98,31.54-68.12C1709.83,453.3,1735.82,473.85,1743.14,505.33z"/>
				</g>
				<g>
					<g>
						<path class="st9" d="M1735.14,507.35c6.01,25.86-5.87,51.23-26.18,56.27c-20.32,5.04-41.38-12.16-47.39-38.01
							c-6.01-25.86,5.59-50.91,25.9-55.95C1707.79,464.61,1729.13,481.49,1735.14,507.35z"/>
						<g>
							<g>
								<path class="st4" d="M1701.76,564.91c-7.61,0-15.26-2.87-22.1-8.39c-8.97-7.24-15.53-18.18-18.47-30.82
									c-6.05-26.04,5.7-51.36,26.2-56.45c9.94-2.48,20.43,0.14,29.53,7.33c9.08,7.17,15.69,18.07,18.61,30.66
									c2.93,12.59,1.77,25.45-3.25,36.22c-5.03,10.78-13.28,18.08-23.23,20.55C1706.64,564.61,1704.2,564.91,1701.76,564.91z
									 M1694.79,469.17c-2.42,0-4.84,0.29-7.22,0.88c-20.07,4.98-31.56,29.85-25.61,55.45c2.9,12.46,9.36,23.24,18.19,30.36
									c8.84,7.14,19.05,9.75,28.72,7.35c9.71-2.41,17.78-9.55,22.7-20.1c4.94-10.6,6.07-23.26,3.19-35.66l0,0
									c-2.88-12.42-9.39-23.14-18.32-30.21C1709.71,471.93,1702.23,469.17,1694.79,469.17z"/>
							</g>
						</g>
					</g>
				</g>
				<g>
					<g>
						<path class="st2" d="M1696,492.52c1.42-0.18,2.81-0.18,4.19,0c1.38,0.19,2.68,0.59,3.92,1.21c1.24,0.62,2.38,1.48,3.42,2.59
							c1.04,1.11,1.92,2.49,2.65,4.14l-4.95,1.36c-1.04-1.59-2.2-2.74-3.49-3.46c-1.29-0.72-2.77-1-4.46-0.86l3.66,14.28
							c1.11,0.17,2.22,0.35,3.31,0.53c1.09,0.18,2.15,0.41,3.19,0.69c1.03,0.28,2.01,0.63,2.94,1.04c0.92,0.42,1.77,0.93,2.54,1.55
							c0.77,0.62,1.43,1.37,1.99,2.23c0.56,0.86,0.99,1.87,1.29,3.03c0.5,1.94,0.58,3.71,0.24,5.33c-0.34,1.62-0.95,3.07-1.84,4.36
							c-0.9,1.29-1.99,2.41-3.3,3.35c-1.31,0.94-2.67,1.7-4.09,2.27l1.83,7.14l-5.01,1.37l-1.87-7.27
							c-1.58,0.07-3.12-0.13-4.62-0.61c-1.51-0.48-2.93-1.19-4.26-2.13c-1.33-0.94-2.55-2.1-3.64-3.47
							c-1.09-1.37-2.01-2.91-2.73-4.63l5.26-1.44c0.46,1.02,1,1.97,1.62,2.82c0.62,0.85,1.31,1.59,2.04,2.21
							c0.74,0.62,1.53,1.11,2.37,1.46c0.85,0.36,1.72,0.56,2.63,0.6l-3.98-15.51c-1.55-0.26-3.06-0.56-4.52-0.91
							c-1.46-0.35-2.82-0.86-4.07-1.5c-1.25-0.65-2.33-1.49-3.24-2.53c-0.91-1.04-1.58-2.38-1.99-4.02
							c-0.38-1.45-0.44-2.87-0.18-4.26c0.25-1.39,0.75-2.69,1.48-3.9c0.74-1.22,1.67-2.31,2.82-3.29c1.15-0.98,2.42-1.78,3.83-2.42
							l-1.18-4.58l5.01-1.38L1696,492.52z M1688.17,506.16c0.19,0.76,0.51,1.41,0.94,1.95c0.44,0.55,0.97,1.02,1.59,1.41
							c0.62,0.39,1.33,0.72,2.14,0.99s1.66,0.48,2.58,0.67l-3.14-12.23c-1.71,0.81-2.91,1.87-3.6,3.17
							C1687.98,503.42,1687.81,504.77,1688.17,506.16z M1711.03,522.41c-0.2-0.76-0.57-1.41-1.11-1.95c-0.54-0.53-1.2-1-2-1.39
							c-0.79-0.39-1.65-0.72-2.6-0.98c-0.95-0.26-1.93-0.48-2.93-0.65l3.53,13.77c1.03-0.44,1.9-0.99,2.64-1.64
							c0.74-0.65,1.33-1.37,1.77-2.14c0.44-0.78,0.72-1.6,0.84-2.45C1711.31,524.14,1711.25,523.28,1711.03,522.41z"/>
					</g>
				</g>
			</g>
		</g>
		<g>
			<rect x="1124.6" y="2424.33" class="st4" width="2038.95" height="11.8"/>
		</g>
		<g>
			<polygon class="st14" points="2988.08,880.5 3093.25,862.51 3055.75,965.6 			"/>
			<g>
				<g>
					<path class="st4" d="M3078.33,971.43l-70.04-88.08l108.85-18.62L3078.33,971.43z M3012.32,884.91l65.31,82.13l36.19-99.5
						L3012.32,884.91z"/>
				</g>
			</g>
		</g>
		<g>
			<path class="st9" d="M2547.55,749.36l-0.57,0.29l23.05,48.29l28.42-43.86l-2.12-1.69
				C2582.27,742.91,2563.78,741.14,2547.55,749.36z"/>
		</g>
		<path class="st1" d="M2959.73,726.81c-3.07-2.41-3.67-6.93-1.33-10.1c2.33-3.17,6.71-3.79,9.78-1.38
			c3.07,2.41,3.67,6.93,1.34,10.1C2967.18,728.6,2962.8,729.22,2959.73,726.81z"/>
		<path class="st1" d="M2085.16,418.98c-3.07-2.41-3.67-6.93-1.33-10.1c2.33-3.17,6.71-3.79,9.78-1.38
			c3.07,2.41,3.67,6.93,1.33,10.1C2092.6,420.77,2088.23,421.39,2085.16,418.98z"/>
		<path class="st1" d="M1355.25,444.68c-3.07-2.41-3.67-6.93-1.34-10.1c2.33-3.17,6.71-3.79,9.78-1.38
			c3.07,2.41,3.67,6.93,1.34,10.1C1362.7,446.47,1358.32,447.09,1355.25,444.68z"/>
		<path class="st1" d="M2779.21,944.32c-3.07-2.41-3.67-6.93-1.34-10.1c2.33-3.17,6.71-3.79,9.79-1.38
			c3.07,2.41,3.67,6.93,1.33,10.1C2786.65,946.11,2782.28,946.73,2779.21,944.32z"/>
		<path class="st8" d="M3000.31,1183.62c-6.14-4.82-7.34-13.86-2.68-20.21c4.66-6.34,13.42-7.58,19.56-2.77
			c6.15,4.82,7.34,13.86,2.68,20.21C3015.21,1187.2,3006.45,1188.44,3000.31,1183.62z"/>
		<path class="st8" d="M1261.85,638.07c-6.14-4.82-7.34-13.86-2.68-20.21c4.66-6.34,13.42-7.58,19.56-2.77
			c6.14,4.82,7.34,13.86,2.68,20.21C1276.74,641.65,1267.99,642.88,1261.85,638.07z"/>
		<path class="st1" d="M2382.79,780.9c0,5.45-4.28,9.87-9.55,9.87s-9.55-4.42-9.55-9.87s4.28-9.87,9.55-9.87
			S2382.79,775.45,2382.79,780.9z"/>
		<path class="st8" d="M2080.14,873.51c0,4.23-3.33,7.66-7.42,7.66s-7.42-3.43-7.42-7.66c0-4.23,3.32-7.66,7.42-7.66
			S2080.14,869.28,2080.14,873.51z"/>
		<path class="st8" d="M1890.57,658.25c0,8.46-6.65,15.33-14.84,15.33c-8.2,0-14.84-6.86-14.84-15.33c0-8.47,6.64-15.33,14.84-15.33
			C1883.93,642.92,1890.57,649.78,1890.57,658.25z"/>
		<path class="st8" d="M2349.69,340c0,8.47-6.64,15.33-14.84,15.33c-8.2,0-14.84-6.86-14.84-15.33c0-8.46,6.64-15.33,14.84-15.33
			C2343.05,324.67,2349.69,331.54,2349.69,340z"/>
	</g>
</g>
</svg>
